<?xml version="1.0" encoding="UTF-8"?>
<svg width="162px" height="30px" viewBox="0 0 162 30" version="1.1" xmlns="http://www.w3.org/2000/svg" xmlns:xlink="http://www.w3.org/1999/xlink">
    <title>UCDavis_CAES_logo_black</title>
    <g id="Symbols" stroke="none" stroke-width="1" fill="none" fill-rule="evenodd" fill-opacity="0.99">
        <g id="footer" transform="translate(-1100, -32)" fill="#FFFFFF">
            <g id="UCDavis_CAES_logo_black" transform="translate(1100, 32)">
                <path d="M19.839608,11.3885932 C20.0244972,8.05983498 19.4071686,4.87692742 18.165936,2.02208613 C17.8998195,1.40935687 17.5946364,0.81891579 17.272821,0.239423283 L0,0.239423283 L0,29.962071 L4.9757607,29.962071 C13.1367973,27.7090104 19.3371583,20.3977075 19.839608,11.3885932" id="Fill-1"></path>
                <path d="M19.2772047,0.239423283 C21.0692367,2.74547421 22.3824136,5.65935961 23.0341671,8.88606148 C24.6540743,16.911368 21.8227179,24.8064646 16.2547705,29.962071 L29.4031717,29.962071 L29.4031717,0.239423283 L19.2772047,0.239423283" id="Fill-2"></path>
                <path d="M89.6414389,10.0466106 L90.692754,7.23869175 L90.8745487,7.39861917 C91.5189531,7.93001615 92.3935018,8.38203594 93.2185405,8.40002289 C93.9565498,8.4172278 94.3166581,8.21858934 94.2187983,7.58709109 C94.1464673,7.11591129 93.6196493,7.0326239 93.290098,6.96732347 L92.568721,6.82147279 C91.1646467,6.55596981 89.9837545,5.68047472 89.9837545,4.02098336 C89.9837545,1.51219529 92.1227437,0.105303222 94.2741104,0.105303222 C95.4039453,0.105303222 96.4417225,0.396222537 97.4114234,1.03475915 L96.5005157,3.52282313 C96,3.15839195 95.2438112,2.64576396 94.2857143,2.61096313 C93.9708613,2.59884149 93.2490975,2.76658932 93.4800155,3.50600925 C93.5798092,3.82117184 94.0265601,3.95372782 94.301573,4.02098336 L95.1169417,4.22001284 C96.637442,4.57818769 97.7386539,5.4540738 97.7386539,7.24573012 C97.7386539,9.7678129 95.5865137,11.0155596 93.4494585,11.0155596 C92.2016503,11.0155596 90.7573491,10.6566027 89.6414389,10.0466106" id="Fill-3"></path>
                <polygon id="Fill-4" points="85.2052604 10.8568052 88.8678442 10.8568052 88.8678442 0.2777433 85.2052604 0.2777433"></polygon>
                <polyline id="Fill-5" points="81.0750387 0.27735228 84.8261991 0.27735228 80.994198 10.8568052 77.9504899 10.8568052 74.1308664 0.27735228 77.8692625 0.27735228 79.4729242 6.66154537 81.0750387 0.27735228"></polyline>
                <path d="M70.7046158,3.33122305 L70.7046158,3.33122305 C70.7711449,3.78128774 71.4271532,7.0193292 71.4271532,7.0193292 L69.9871068,7.0193292 L70.7046158,3.33122305 Z M65.2453584,10.8568052 L69.0510572,10.8568052 L69.3407684,9.52811728 L72.0560856,9.52811728 L72.4165807,10.8568052 L76.2246003,10.8568052 L72.660263,0.2777433 L68.6681279,0.2777433 L65.2453584,10.8568052 L65.2453584,10.8568052 Z" id="Fill-6"></path>
                <path d="M55.8353533,0.27735228 L59.5869005,0.27735228 C62.9354048,0.27735228 65.4929087,1.83126808 65.4929087,5.7199678 C65.4929087,8.85282473 63.4088448,10.8568052 60.4807891,10.8568052 L55.8353533,10.8509399 L55.8353533,0.27735228 Z M59.5226921,7.81935732 L59.7683084,7.81935732 C60.9755028,7.81935732 61.8713254,7.08697577 61.8713254,5.70628208 C61.8713254,4.22001284 61.0780041,3.3910492 59.7516761,3.3910492 L59.5226921,3.3910492 L59.5226921,7.81935732 L59.5226921,7.81935732 Z" id="Fill-7"></path>
                <path d="M53.6449201,0.609328756 L53.8406395,2.34585117 C53.8862816,2.75759585 54.1195204,3.74609589 53.8309696,3.61393093 C53.6514956,3.53259865 53.5033522,3.08448906 53.3563693,2.68603908 C53.2817174,2.48388144 52.9250903,1.52822713 52.8318721,1.45784343 C52.3804796,1.1172645 51.2560598,0.73250024 50.4952295,0.728981055 C48.1883703,0.720378602 46.6624549,2.44086918 46.6624549,5.49434892 C46.6624549,7.6840642 47.6990717,10.3109405 50.3374162,10.3109405 C51.2827488,10.3109405 53.0929603,10.0102457 53.5861269,8.65066708 C53.8089221,8.03520068 54.0123775,7.48816289 54.1597473,7.65473766 C54.2695977,7.77556302 54.1268695,8.26824895 54.061114,8.53375193 C53.7501289,9.79401128 53.7331099,10.1760384 53.6352501,10.224916 C52.4435276,10.8306068 50.9145178,11.0296363 49.5769727,11.0296363 C45.3222022,11.0296363 43.8535327,8.52045723 43.8535327,6.01206018 C43.8535327,1.65882801 46.4988396,-0.174667517 50.5985044,0.0130223642 C51.6358948,0.0521244227 52.673672,0.238641242 53.6449201,0.609328756" id="Fill-9"></path>
                <path d="M41.084064,0.802492925 L40.4025271,0.562015265 C40.1747035,0.353992314 40.4531975,0.295730247 40.4531975,0.295730247 C40.4531975,0.295730247 41.4375967,0.480682984 43.8902785,0.269922889 C43.8902785,0.269922889 44.103017,0.313326173 43.9564208,0.487721354 L43.1511088,0.836511716 C42.6269985,1.06760488 42.6269985,0.935048903 42.6269985,1.51571447 L42.6223569,6.9071063 C42.6223569,11.1242633 38.3803507,11.0296363 37.5537648,11.0296363 C37.1596184,11.0296363 33.2684373,11.0296363 33.2684373,7.64457112 L33.2684373,1.93684364 C33.2684373,0.942087274 33.374033,0.967894633 33.0468025,0.851761519 L32.0627901,0.47833686 C32.0627901,0.47833686 31.8956937,0.239423283 32.192754,0.254673086 C32.9972924,0.295730247 34.1615523,0.469734407 36.9004642,0.269922889 C36.9004642,0.269922889 37.1391181,0.328966997 36.9820784,0.502971157 L36.1632285,0.736410446 C35.540098,1.01872731 35.6224858,0.802492925 35.6058535,1.44963199 L35.6255802,7.07680923 C35.6255802,8.45672087 36.3280041,10.1654808 38.5370036,10.1654808 C41.543966,10.1654808 41.572589,7.5358674 41.572589,6.9509006 L41.5776173,1.37651114 C41.6097215,0.851761519 41.543966,1.00113138 41.084064,0.802492925" id="Fill-11"></path>
                <polygon id="Fill-12" points="33.2692109 13.6424359 161.961707 13.6424359 161.961707 13.2005826 33.2692109 13.2005826"></polygon>
                <path d="M37.0168901,18.069962 C36.9468798,17.9733799 36.866426,17.8889194 36.7770758,17.8169716 C36.6873388,17.7442418 36.5910263,17.6840246 36.4873646,17.634365 C36.3840897,17.5850964 36.2761733,17.5479495 36.1624549,17.5225331 C36.0491233,17.4975078 35.9342445,17.4846041 35.8185921,17.4846041 C35.6097215,17.4846041 35.4190304,17.5225331 35.246132,17.5983911 C35.0740072,17.6738581 34.9262506,17.7786516 34.8040227,17.9115986 C34.6814079,18.0445456 34.585869,18.2005628 34.5177927,18.3796503 C34.4501031,18.5583467 34.416065,18.7515108 34.416065,18.9579697 C34.416065,19.1691208 34.4501031,19.362676 34.5177927,19.5394173 C34.585869,19.7161586 34.6825683,19.8682656 34.8071171,19.9957383 C34.9320526,20.12282 35.08213,20.2229213 35.2565756,20.2948691 C35.4314079,20.3668169 35.6251934,20.4027908 35.8390923,20.4027908 C35.9501031,20.4027908 36.0603404,20.3902781 36.1705776,20.3636887 C36.2808149,20.3374903 36.3864105,20.2995613 36.4873646,20.2502927 C36.5883187,20.2006331 36.6838577,20.141589 36.7732078,20.0727694 C36.8629448,20.0039498 36.9445591,19.9261367 37.0168901,19.8389391 L37.0168901,21.4945202 C36.9031717,21.528539 36.7968025,21.5613848 36.6970088,21.5926664 C36.5972151,21.623166 36.4993553,21.6497554 36.4038164,21.6716526 C36.3086643,21.6935497 36.2131253,21.7107546 36.1160392,21.7232673 C36.0197267,21.736171 35.917999,21.7424273 35.8120165,21.7424273 C35.4437855,21.7424273 35.0914131,21.6743897 34.7545126,21.5390966 C34.4172254,21.4038035 34.1116555,21.2110303 33.8366426,20.9607771 C33.5465446,20.6948831 33.3330325,20.3922332 33.1968798,20.0540004 C33.0607272,19.7157676 32.9926509,19.3478172 32.9926509,18.9513224 C32.9926509,18.5861091 33.0587932,18.2361457 33.1903043,17.9014321 C33.3218154,17.5663274 33.5148272,17.2679787 33.7689531,17.006386 C33.8985302,16.873439 34.040098,16.7533956 34.1944301,16.646647 C34.3487622,16.5402894 34.5119907,16.4491816 34.6833419,16.3744967 C34.8539195,16.3002028 35.0318463,16.2431138 35.2159618,16.2044027 C35.3996906,16.1653007 35.5834193,16.1457497 35.767148,16.1457497 C35.9876225,16.1457497 36.1999742,16.1696019 36.4038164,16.2165244 C36.6084322,16.2638379 36.8126612,16.3295293 37.0168901,16.4147718 L37.0168901,18.069962" id="Fill-13"></path>
                <path d="M40.9564208,17.4501943 C40.7521919,17.4501943 40.5599536,17.4885143 40.3808664,17.5655454 C40.2017793,17.6425765 40.0443528,17.7458059 39.9093605,17.8756247 C39.774755,18.0050525 39.6676122,18.1544224 39.5894791,18.3225613 C39.5113461,18.4914821 39.4718927,18.6678324 39.4718927,18.8512211 C39.4718927,19.0807502 39.5113461,19.2922923 39.5894791,19.4862385 C39.6676122,19.6797937 39.774755,19.8471505 39.9093605,19.9883089 C40.0443528,20.1294674 40.2017793,20.2397352 40.3808664,20.3187213 C40.5599536,20.3980985 40.7521919,20.4379826 40.9564208,20.4379826 C41.160263,20.4379826 41.3528881,20.3980985 41.5331356,20.3187213 C41.71377,20.2397352 41.8711965,20.1294674 42.0046416,19.9883089 C42.1384734,19.8471505 42.2448427,19.6797937 42.322589,19.4862385 C42.4014956,19.2922923 42.4409489,19.0807502 42.4409489,18.8512211 C42.4409489,18.6678324 42.4014956,18.4914821 42.322589,18.3225613 C42.2448427,18.1544224 42.1384734,18.0050525 42.0046416,17.8756247 C41.8711965,17.7458059 41.71377,17.6425765 41.5331356,17.5655454 C41.3528881,17.4885143 41.160263,17.4501943 40.9564208,17.4501943 M40.9564208,16.1113398 C41.2082259,16.1113398 41.4550026,16.1418395 41.6967509,16.2028387 C41.9384992,16.2638379 42.1670964,16.3498624 42.3825425,16.4624763 C42.5983755,16.5746992 42.7971893,16.7123385 42.9785972,16.87383 C43.160392,17.0357125 43.3162713,17.2179281 43.446622,17.4212588 C43.5773595,17.6241985 43.679474,17.8451251 43.7533522,18.0836477 C43.8268437,18.3221702 43.8639763,18.5759426 43.8639763,18.8441827 C43.8639763,19.2754784 43.792032,19.6708002 43.6477566,20.0297571 C43.5034812,20.389105 43.3019598,20.6976203 43.0431924,20.9556939 C42.784425,21.2141585 42.4776947,21.4151431 42.122228,21.5598207 C41.767148,21.7041073 41.3784167,21.7764461 40.9564208,21.7764461 C40.6744456,21.7764461 40.4075554,21.7439914 40.15459,21.6786909 C39.9016245,21.6133905 39.6676122,21.5195456 39.4529397,21.3979382 C39.2386539,21.2767218 39.0448685,21.128525 38.8711965,20.9556939 C38.6971377,20.7824718 38.5497679,20.5869615 38.4283136,20.369163 C38.307246,20.1509735 38.2132543,19.913624 38.1478855,19.6582876 C38.08213,19.4021691 38.0488654,19.1311918 38.0488654,18.8441827 C38.0488654,18.5759426 38.0859979,18.3221702 38.1594894,18.0836477 C38.2333677,17.8451251 38.335869,17.6241985 38.4677669,17.4212588 C38.599278,17.2179281 38.7551573,17.0357125 38.9357916,16.87383 C39.1160392,16.7123385 39.3144662,16.5746992 39.5299123,16.4624763 C39.7453584,16.3498624 39.9739556,16.2638379 40.215704,16.2028387 C40.4578391,16.1418395 40.704229,16.1113398 40.9564208,16.1113398" id="Fill-14"></path>
                <polyline id="Fill-15" points="46.4025271 20.4309442 48.0437081 20.4309442 48.0437081 21.6012689 45.0371325 21.6012689 45.0371325 16.2869081 46.4025271 16.2869081 46.4025271 20.4309442"></polyline>
                <polyline id="Fill-16" points="50.6356369 20.4309442 52.2768179 20.4309442 52.2768179 21.6012689 49.2702424 21.6012689 49.2702424 16.2869081 50.6356369 16.2869081 50.6356369 20.4309442"></polyline>
                <polyline id="Fill-17" points="54.8687468 17.4572327 54.8687468 18.3448494 56.4105209 18.3448494 56.4105209 19.5155651 54.8687468 19.5155651 54.8687468 20.4309442 56.4960031 20.4309442 56.4960031 21.6004868 53.5033522 21.6004868 53.5033522 16.2869081 56.4960031 16.2869081 56.4960031 17.4572327 54.8687468 17.4572327"></polyline>
                <path d="M63.2282104,18.6342047 C63.2243424,18.8269778 63.2158329,19.0138856 63.2046158,19.1953192 C63.1933987,19.3763617 63.1686436,19.5538851 63.1311243,19.7271072 C63.0943785,19.8999383 63.0406137,20.0704233 62.971377,20.236216 C62.9021403,20.4027908 62.8081485,20.5685835 62.6905621,20.7339852 C62.560985,20.9150277 62.4167096,21.071436 62.2585095,21.2032099 C62.099149,21.3353749 61.9277978,21.4440786 61.7436823,21.52893 C61.5603404,21.6133905 61.3661681,21.6763448 61.1623259,21.7162289 C60.9573234,21.756504 60.7449716,21.7764461 60.5252708,21.7764461 C60.1121712,21.7764461 59.7334966,21.7087995 59.3900206,21.5738974 C59.0461578,21.4382133 58.7502579,21.2473952 58.5030944,21.0006612 C58.2555441,20.7535362 58.0633058,20.4587067 57.925606,20.1142176 C57.7882929,19.7701195 57.7198298,19.3892654 57.7198298,18.9712644 C57.7198298,18.5399687 57.7890665,18.1481661 57.92754,17.7962475 C58.0660134,17.444329 58.2609593,17.1436342 58.5112171,16.8945541 C58.7618618,16.645865 59.0624033,16.4530918 59.4120681,16.3162346 C59.7613461,16.1797684 60.1481434,16.1113398 60.5728468,16.1113398 C61.1132027,16.1113398 61.5862558,16.2349023 61.992393,16.4816363 C62.398917,16.7283703 62.7153172,17.1006219 62.9423672,17.5983911 L61.6458226,18.1458199 C61.5978597,18.0195203 61.5375193,17.9049513 61.4651882,17.8017218 C61.3916968,17.6981014 61.3081485,17.6089487 61.2129964,17.5346548 C61.1174575,17.4599698 61.0110882,17.4028808 60.8927282,17.3626057 C60.774755,17.3227216 60.6467251,17.3027796 60.5086385,17.3027796 C60.2839092,17.3027796 60.0854822,17.3516571 59.9156782,17.4505853 C59.7454874,17.5491225 59.603146,17.6781593 59.4882671,17.8373047 C59.3737751,17.9972321 59.2875193,18.1767106 59.2298865,18.3761311 C59.1718669,18.5759426 59.1428571,18.7765362 59.1428571,18.9786938 C59.1428571,19.1851527 59.1730273,19.3873103 59.2329809,19.5863398 C59.2933213,19.7841962 59.3818979,19.9621106 59.4987107,20.1193008 C59.6155235,20.2764911 59.7605725,20.4027908 59.9346313,20.4981998 C60.1079165,20.5936088 60.3075039,20.6409223 60.5322331,20.6409223 C60.6792161,20.6409223 60.8173027,20.6217623 60.9457194,20.5822692 C61.0737494,20.5431672 61.1859206,20.4849051 61.2826199,20.4086561 C61.3789324,20.331625 61.4578391,20.235825 61.5189531,20.1208649 C61.5804538,20.0062959 61.6179732,19.8721758 61.6315111,19.7185047 L60.515214,19.7185047 L60.515214,18.6342047 L63.2282104,18.6342047" id="Fill-18"></path>
                <polyline id="Fill-19" points="65.7501289 17.4572327 65.7501289 18.3448494 67.2922898 18.3448494 67.2922898 19.5155651 65.7501289 19.5155651 65.7501289 20.4309442 67.3773853 20.4309442 67.3773853 21.6004868 64.3847344 21.6004868 64.3847344 16.2869081 67.3773853 16.2869081 67.3773853 17.4572327 65.7501289 17.4572327"></polyline>
                <path d="M73.1120423,18.6373328 C72.9662197,18.6373328 72.8292935,18.6647043 72.7012635,18.7194471 C72.5732336,18.7749721 72.4606756,18.8480929 72.3647499,18.9411558 C72.2680505,19.0338277 72.1918515,19.1401853 72.1361527,19.2602286 C72.080067,19.380663 72.0526044,19.5069626 72.0526044,19.6371725 C72.0526044,19.8017921 72.080067,19.9523351 72.1361527,20.0911474 C72.1918515,20.2295686 72.2680505,20.3488299 72.3647499,20.4501043 C72.4606756,20.5502055 72.5732336,20.6291917 72.7012635,20.6858897 C72.8292935,20.7421966 72.9662197,20.7707411 73.1120423,20.7707411 C73.2578649,20.7707411 73.3951779,20.7421966 73.5239814,20.6858897 C73.6531717,20.6291917 73.765343,20.5502055 73.8608819,20.4501043 C73.9564208,20.3488299 74.0318463,20.2295686 74.0879319,20.0911474 C74.1436307,19.9523351 74.1718669,19.8017921 74.1718669,19.6371725 C74.1718669,19.5069626 74.1436307,19.380663 74.0879319,19.2602286 C74.0318463,19.1401853 73.9564208,19.0338277 73.8608819,18.9411558 C73.765343,18.8480929 73.6531717,18.7749721 73.5239814,18.7194471 C73.3951779,18.6647043 73.2578649,18.6373328 73.1120423,18.6373328 M73.1120423,17.6816785 C73.291903,17.6816785 73.4678958,17.7031846 73.6404074,17.7465879 C73.8133058,17.7903822 73.9761475,17.8517725 74.1304796,17.9323227 C74.2840382,18.0120909 74.4267664,18.1098461 74.5559567,18.2259792 C74.685147,18.3413302 74.7973182,18.4711491 74.8901496,18.6166087 C74.9829809,18.7616774 75.0556988,18.9192587 75.1090768,19.0897436 C75.1612945,19.2598376 75.1875967,19.4408801 75.1875967,19.6324802 C75.1875967,19.9406044 75.1361527,20.2233123 75.0332646,20.4790398 C74.9303765,20.7351583 74.7872615,20.9560849 74.6019856,21.1406466 C74.4174832,21.3244263 74.198556,21.4687129 73.9444301,21.5719423 C73.6906911,21.6747807 73.4137442,21.7263954 73.1120423,21.7263954 C72.9109077,21.7263954 72.7202166,21.7037163 72.5395823,21.6564028 C72.3585611,21.6094803 72.1918515,21.5433978 72.0386797,21.4554182 C71.885508,21.3693936 71.7470346,21.2642091 71.6228726,21.1406466 C71.4990975,21.0163021 71.3938886,20.8767077 71.3068592,20.7210815 C71.2206034,20.5658463 71.1536875,20.3961434 71.106885,20.2143188 C71.0593089,20.0309302 71.0361011,19.837375 71.0361011,19.6324802 C71.0361011,19.4408801 71.0624033,19.2598376 71.1157813,19.0897436 C71.167999,18.9192587 71.2411037,18.7616774 71.3350954,18.6166087 C71.4290872,18.4711491 71.5408716,18.3413302 71.6692883,18.2259792 C71.7980918,18.1098461 71.9396596,18.0120909 72.093605,17.9323227 C72.2475503,17.8517725 72.4107788,17.7903822 72.5832904,17.7465879 C72.7561888,17.7031846 72.9317947,17.6816785 73.1120423,17.6816785" id="Fill-20"></path>
                <polyline id="Fill-21" points="76.8102114 18.6424161 76.8102114 19.2762605 77.8824136 19.2762605 77.8824136 20.1118714 76.8102114 20.1118714 76.8102114 21.6012689 75.8354822 21.6012689 75.8354822 17.8071961 77.9914905 17.8071961 77.9914905 18.6424161 76.8102114 18.6424161"></polyline>
                <path d="M83.7350438,17.9288035 L83.7218927,17.9288035 L83.156395,19.6219227 L84.2931924,19.6219227 L83.7350438,17.9288035 Z M82.7784941,20.6784603 L82.4176122,21.6004868 L80.967509,21.6004868 L82.9896854,16.2869081 L84.4807891,16.2869081 L86.4623517,21.6004868 L85.0052862,21.6004868 L84.6614234,20.6784603 L82.7784941,20.6784603 L82.7784941,20.6784603 Z" id="Fill-22"></path>
                <path d="M92.7338834,18.6342047 C92.7292419,18.8269778 92.7211191,19.0138856 92.7102888,19.1953192 C92.6986849,19.3763617 92.6743167,19.5538851 92.6367973,19.7271072 C92.5996648,19.8999383 92.5458999,20.0704233 92.47705,20.236216 C92.4074265,20.4027908 92.3138216,20.5685835 92.1958484,20.7339852 C92.0666581,20.9150277 91.9223827,21.071436 91.7637958,21.2032099 C91.6048221,21.3353749 91.4334709,21.4440786 91.2493553,21.52893 C91.0660134,21.6133905 90.8718412,21.6763448 90.6676122,21.7162289 C90.4626096,21.756504 90.2506447,21.7764461 90.0309438,21.7764461 C89.6174575,21.7764461 89.2387829,21.7087995 88.8953069,21.5738974 C88.5510572,21.4382133 88.2555441,21.2473952 88.0083806,21.0006612 C87.7612171,20.7535362 87.5689789,20.4587067 87.4316658,20.1142176 C87.2935792,19.7701195 87.2255028,19.3892654 87.2255028,18.9712644 C87.2255028,18.5399687 87.2947396,18.1481661 87.4328262,17.7962475 C87.5716864,17.444329 87.7662455,17.1436342 88.0168901,16.8945541 C88.2679216,16.645865 88.5680763,16.4530918 88.9173543,16.3162346 C89.2674059,16.1797684 89.6542032,16.1113398 90.0785199,16.1113398 C90.6188757,16.1113398 91.091542,16.2349023 91.4976792,16.4816363 C91.9042032,16.7283703 92.2206034,17.1006219 92.4480402,17.5983911 L91.1511088,18.1458199 C91.103146,18.0195203 91.0428056,17.9049513 90.9704745,17.8017218 C90.8977566,17.6981014 90.8142084,17.6089487 90.7182826,17.5346548 C90.6231305,17.4599698 90.5167612,17.4028808 90.3984012,17.3626057 C90.2800413,17.3227216 90.1523981,17.3027796 90.0135379,17.3027796 C89.7888087,17.3027796 89.5919288,17.3516571 89.4209644,17.4505853 C89.2511604,17.5491225 89.108819,17.6781593 88.994327,17.8373047 C88.8794482,17.9972321 88.7931924,18.1767106 88.7355596,18.3761311 C88.67754,18.5759426 88.6485302,18.7765362 88.6485302,18.9786938 C88.6485302,19.1851527 88.6783136,19.3873103 88.7382671,19.5863398 C88.7989943,19.7841962 88.8871841,19.9621106 89.0043837,20.1193008 C89.1211965,20.2764911 89.2666323,20.4027908 89.4399175,20.4981998 C89.6135895,20.5936088 89.8127901,20.6409223 90.0375193,20.6409223 C90.1848891,20.6409223 90.322589,20.6217623 90.4510057,20.5822692 C90.5790356,20.5431672 90.6915936,20.4849051 90.7882929,20.4086561 C90.8846055,20.331625 90.9635121,20.235825 91.0246261,20.1208649 C91.0861269,20.0062959 91.1236462,19.8721758 91.1371841,19.7185047 L90.0208871,19.7185047 L90.0208871,18.6342047 L92.7338834,18.6342047" id="Fill-23"></path>
                <path d="M95.5346828,18.6690055 L95.6669675,18.6690055 C95.7783651,18.6690055 95.8909232,18.6611851 96.0042548,18.6463263 C96.1179732,18.6314675 96.2197009,18.6005769 96.310985,18.5536544 C96.4014956,18.5059499 96.4749871,18.4398674 96.5318463,18.3538429 C96.5883187,18.2682094 96.6169417,18.1528583 96.6169417,18.0077897 C96.6169417,17.8635031 96.5883187,17.74737 96.5318463,17.6601724 C96.4749871,17.5729748 96.4014956,17.5057193 96.310985,17.4587968 C96.2197009,17.4118743 96.1179732,17.3809837 96.0042548,17.3657339 C95.8909232,17.3508751 95.7783651,17.3438367 95.6669675,17.3438367 L95.5346828,17.3438367 L95.5346828,18.6690055 Z M98.5404848,21.6012689 L96.8381898,21.6012689 L95.5517019,19.5570132 L95.5346828,19.5570132 L95.5346828,21.6012689 L94.1692883,21.6012689 L94.1692883,16.2869081 L96.2119649,16.2869081 C96.4707323,16.2869081 96.7117071,16.3189718 96.9352759,16.3834902 C97.1588448,16.4480086 97.3526302,16.5461547 97.5158587,16.6798838 C97.679474,16.8124398 97.8075039,16.9817517 97.9003352,17.1866465 C97.9935534,17.3923233 98.0399691,17.6371022 98.0399691,17.9213741 C98.0399691,18.1055448 98.015214,18.27994 97.9653172,18.4469058 C97.9150335,18.6134806 97.8411552,18.7628504 97.7436823,18.8957974 C97.6462094,19.0291354 97.5259154,19.1413584 97.3828004,19.2332482 C97.2400722,19.325138 97.0752965,19.3880923 96.8896338,19.4225022 L98.5404848,21.6012689 L98.5404848,21.6012689 Z" id="Fill-24"></path>
                <polygon id="Fill-25" points="99.727179 21.6004868 101.092573 21.6004868 101.092573 16.2869081 99.727179 16.2869081"></polygon>
                <path d="M106.423027,18.069962 C106.35263,17.9733799 106.272563,17.8889194 106.182826,17.8169716 C106.093476,17.7442418 105.996777,17.6840246 105.893115,17.634365 C105.790227,17.5850964 105.681924,17.5479495 105.568205,17.5225331 C105.454874,17.4975078 105.340382,17.4846041 105.224729,17.4846041 C105.015859,17.4846041 104.824781,17.5225331 104.652269,17.5983911 C104.479758,17.6738581 104.332001,17.7786516 104.21016,17.9115986 C104.087158,18.0445456 103.992006,18.2005628 103.92393,18.3796503 C103.855854,18.5583467 103.822202,18.7515108 103.822202,18.9579697 C103.822202,19.1691208 103.855854,19.362676 103.92393,19.5394173 C103.992006,19.7161586 104.088319,19.8682656 104.212867,19.9957383 C104.33819,20.12282 104.48788,20.2229213 104.662326,20.2948691 C104.837932,20.3668169 105.031331,20.4027908 105.244843,20.4027908 C105.355854,20.4027908 105.466864,20.3902781 105.576715,20.3636887 C105.686952,20.3374903 105.792161,20.2995613 105.893115,20.2502927 C105.994456,20.2006331 106.089995,20.141589 106.179345,20.0727694 C106.268695,20.0039498 106.350309,19.9261367 106.423027,19.8389391 L106.423027,21.4945202 C106.309309,21.528539 106.20294,21.5613848 106.102759,21.5926664 C106.002965,21.623166 105.905106,21.6497554 105.809954,21.6716526 C105.714415,21.6935497 105.618876,21.7107546 105.522176,21.7232673 C105.425864,21.736171 105.324136,21.7424273 105.217767,21.7424273 C104.850309,21.7424273 104.49755,21.6743897 104.16065,21.5390966 C103.823363,21.4038035 103.517406,21.2110303 103.243167,20.9607771 C102.952682,20.6948831 102.73917,20.3922332 102.603017,20.0540004 C102.466864,19.7157676 102.398788,19.3478172 102.398788,18.9513224 C102.398788,18.5861091 102.464544,18.2361457 102.596441,17.9014321 C102.727566,17.5663274 102.920964,17.2679787 103.17509,17.006386 C103.304281,16.873439 103.446235,16.7533956 103.600181,16.646647 C103.754899,16.5402894 103.917741,16.4491816 104.089092,16.3744967 C104.26083,16.3002028 104.437597,16.2431138 104.621712,16.2044027 C104.805828,16.1653007 104.98917,16.1457497 105.173672,16.1457497 C105.39376,16.1457497 105.605725,16.1696019 105.809954,16.2165244 C106.014183,16.2638379 106.218798,16.3295293 106.423027,16.4147718 L106.423027,18.069962" id="Fill-26"></path>
                <path d="M112.613718,16.2869081 L112.613718,19.2743054 C112.613718,19.4463544 112.60985,19.6164484 112.601728,19.7838052 C112.593992,19.951553 112.571944,20.1146086 112.535585,20.274536 C112.499226,20.4336814 112.444301,20.5877435 112.370036,20.7359403 C112.296545,20.8837461 112.195204,21.0217763 112.065627,21.1500311 C111.95655,21.2602989 111.833161,21.3525798 111.694688,21.4272647 C111.556215,21.5019496 111.410779,21.5625578 111.258767,21.6094803 C111.106369,21.6567938 110.95049,21.6904216 110.789969,21.7115367 C110.630609,21.7314787 110.474342,21.7420363 110.322331,21.7420363 C110.167999,21.7420363 110.010959,21.7314787 109.850825,21.7115367 C109.690691,21.6904216 109.535585,21.6567938 109.383961,21.6094803 C109.233497,21.5625578 109.088834,21.5019496 108.950361,21.4272647 C108.812274,21.3525798 108.688112,21.2602989 108.579036,21.1500311 C108.447911,21.0217763 108.345023,20.8837461 108.271532,20.7359403 C108.197267,20.5877435 108.142728,20.4336814 108.106369,20.274536 C108.07001,20.1146086 108.047189,19.951553 108.040227,19.7838052 C108.031717,19.6164484 108.027849,19.4463544 108.027849,19.2743054 L108.027849,16.2869081 L109.393244,16.2869081 L109.393244,19.0850514 C109.393244,19.1996204 109.395952,19.3161446 109.401753,19.4326687 C109.406782,19.5499749 109.419546,19.6614157 109.438886,19.7685554 C109.458226,19.874522 109.487622,19.9750142 109.527463,20.0676861 C109.567303,20.160749 109.621454,20.2412993 109.690691,20.3101189 C109.760315,20.3789385 109.845797,20.4332904 109.947524,20.4723924 C110.050026,20.5111035 110.174575,20.5306545 110.322331,20.5306545 C110.467767,20.5306545 110.591929,20.5111035 110.695204,20.4723924 C110.798479,20.4332904 110.884348,20.3789385 110.952424,20.3101189 C111.0205,20.2412993 111.074265,20.160749 111.113718,20.0676861 C111.153945,19.9750142 111.184116,19.874522 111.204229,19.7685554 C111.224342,19.6614157 111.237107,19.5499749 111.241362,19.4326687 C111.246003,19.3161446 111.248711,19.1996204 111.248711,19.0850514 L111.248711,16.2869081 L112.613718,16.2869081" id="Fill-27"></path>
                <polyline id="Fill-28" points="115.66671 20.4309442 117.307504 20.4309442 117.307504 21.6012689 114.300928 21.6012689 114.300928 16.2869081 115.66671 16.2869081 115.66671 20.4309442"></polyline>
                <polyline id="Fill-29" points="120.254899 21.6012689 118.889892 21.6012689 118.889892 17.4576237 117.75967 17.4576237 117.75967 16.2869081 121.385895 16.2869081 121.385895 17.4576237 120.254899 17.4576237 120.254899 21.6012689"></polyline>
                <path d="M127.201006,16.2869081 L127.201006,19.2743054 C127.201006,19.4463544 127.197138,19.6164484 127.189015,19.7838052 C127.181279,19.951553 127.159232,20.1146086 127.123259,20.274536 C127.086514,20.4336814 127.031588,20.5877435 126.95771,20.7359403 C126.883832,20.8837461 126.782878,21.0217763 126.653687,21.1500311 C126.544224,21.2602989 126.420062,21.3525798 126.282362,21.4272647 C126.143502,21.5019496 125.998066,21.5625578 125.846055,21.6094803 C125.693657,21.6567938 125.538164,21.6904216 125.377643,21.7115367 C125.218283,21.7314787 125.06163,21.7420363 124.910005,21.7420363 C124.75606,21.7420363 124.598247,21.7314787 124.438112,21.7115367 C124.277978,21.6904216 124.122873,21.6567938 123.972022,21.6094803 C123.821171,21.5625578 123.676509,21.5019496 123.538035,21.4272647 C123.399562,21.3525798 123.276173,21.2602989 123.167096,21.1500311 C123.035199,21.0217763 122.93231,20.8837461 122.858819,20.7359403 C122.784941,20.5877435 122.729629,20.4336814 122.693657,20.274536 C122.657298,20.1146086 122.634863,19.951553 122.627514,19.7838052 C122.619005,19.6164484 122.615137,19.4463544 122.615137,19.2743054 L122.615137,16.2869081 L123.980531,16.2869081 L123.980531,19.0850514 C123.980531,19.1996204 123.983239,19.3161446 123.989041,19.4326687 C123.994456,19.5499749 124.00722,19.6614157 124.02656,19.7685554 C124.0459,19.874522 124.07491,19.9750142 124.115137,20.0676861 C124.154977,20.160749 124.209128,20.2412993 124.277978,20.3101189 C124.347602,20.3789385 124.433471,20.4332904 124.535199,20.4723924 C124.637313,20.5111035 124.762249,20.5306545 124.910005,20.5306545 C125.055054,20.5306545 125.179603,20.5111035 125.282878,20.4723924 C125.386153,20.4332904 125.471635,20.3789385 125.540098,20.3101189 C125.608174,20.2412993 125.661166,20.160749 125.701779,20.0676861 C125.741619,19.9750142 125.771403,19.874522 125.791129,19.7685554 C125.812017,19.6614157 125.824394,19.5499749 125.829036,19.4326687 C125.833677,19.3161446 125.835998,19.1996204 125.835998,19.0850514 L125.835998,16.2869081 L127.201006,16.2869081" id="Fill-30"></path>
                <path d="M130.253997,18.6690055 L130.386282,18.6690055 C130.497679,18.6690055 130.610237,18.6611851 130.723182,18.6463263 C130.8369,18.6314675 130.939402,18.6005769 131.030299,18.5536544 C131.121196,18.5059499 131.194688,18.4398674 131.251934,18.3538429 C131.308406,18.2682094 131.336256,18.1528583 131.336256,18.0077897 C131.336256,17.8635031 131.308406,17.74737 131.251934,17.6601724 C131.194688,17.5729748 131.121196,17.5057193 131.030299,17.4587968 C130.939402,17.4118743 130.8369,17.3809837 130.723182,17.3657339 C130.610237,17.3508751 130.497679,17.3438367 130.386282,17.3438367 L130.253997,17.3438367 L130.253997,18.6690055 Z M133.260186,21.6012689 L131.557504,21.6012689 L130.271016,19.5570132 L130.253997,19.5570132 L130.253997,21.6012689 L128.888602,21.6012689 L128.888602,16.2869081 L130.931279,16.2869081 C131.18966,16.2869081 131.431021,16.3189718 131.654977,16.3834902 C131.878546,16.4480086 132.072331,16.5461547 132.23556,16.6798838 C132.398401,16.8124398 132.526818,16.9817517 132.620036,17.1866465 C132.712867,17.3923233 132.759283,17.6371022 132.759283,17.9213741 C132.759283,18.1055448 132.734528,18.27994 132.684631,18.4469058 C132.634734,18.6134806 132.560856,18.7628504 132.463383,18.8957974 C132.36591,19.0291354 132.245616,19.1413584 132.102501,19.2332482 C131.959773,19.325138 131.794997,19.3880923 131.608948,19.4225022 L133.260186,21.6012689 L133.260186,21.6012689 Z" id="Fill-31"></path>
                <path d="M136.978081,17.9288035 L136.965317,17.9288035 L136.399433,19.6219227 L137.536617,19.6219227 L136.978081,17.9288035 Z M136.021919,20.6784603 L135.661423,21.6004868 L134.210547,21.6004868 L136.233497,16.2869081 L137.724214,16.2869081 L139.705389,21.6004868 L138.248324,21.6004868 L137.904848,20.6784603 L136.021919,20.6784603 L136.021919,20.6784603 Z" id="Fill-32"></path>
                <polyline id="Fill-33" points="142.281073 20.4309442 143.921867 20.4309442 143.921867 21.6012689 140.915678 21.6012689 140.915678 16.2869081 142.281073 16.2869081 142.281073 20.4309442"></polyline>
                <path d="M34.7692109,27.2026387 L34.7591542,27.2026387 L34.3557246,28.4112834 L35.167999,28.4112834 L34.7692109,27.2026387 Z M34.0861269,29.1659531 L33.8285199,29.8244318 L32.7926766,29.8244318 L34.2369778,26.030359 L35.301444,26.030359 L36.7159618,29.8244318 L35.6754771,29.8244318 L35.4302476,29.1659531 L34.0861269,29.1659531 L34.0861269,29.1659531 Z" id="Fill-34"></path>
                <polyline id="Fill-35" points="37.1932697 26.030359 38.167999 26.030359 39.9569366 28.3498931 39.9673801 28.3498931 39.9673801 26.030359 40.9413357 26.030359 40.9413357 29.8244318 39.9673801 29.8244318 38.1803765 27.4994234 38.167999 27.4994234 38.167999 29.8244318 37.1932697 29.8244318 37.1932697 26.030359"></polyline>
                <path d="M42.7546416,28.9892118 L42.9762764,28.9892118 C43.1217122,28.9892118 43.2601857,28.9684877 43.3905364,28.9278216 C43.5208871,28.8867644 43.6353791,28.822246 43.7332388,28.7358304 C43.8314853,28.6494149 43.9096184,28.5387561 43.967638,28.4054181 C44.0260444,28.271689 44.0550542,28.1125436 44.0550542,27.9271999 C44.0550542,27.7571059 44.0287519,27.6053899 43.9761475,27.473616 C43.9235431,27.3422331 43.8500516,27.2311832 43.7552862,27.1412485 C43.6601341,27.0509227 43.5475761,26.9824941 43.4172254,26.9359627 C43.2868747,26.8890402 43.1429861,26.865188 42.9855596,26.865188 L42.7546416,26.865188 L42.7546416,28.9892118 Z M41.7802991,26.030359 L43.1634863,26.030359 C43.3367715,26.030359 43.5046416,26.0522562 43.6667096,26.0964415 C43.8287777,26.1406268 43.9804023,26.2035811 44.1223569,26.2845224 C44.2643115,26.3654637 44.393115,26.4636098 44.5099278,26.5781789 C44.6267406,26.6931389 44.7261475,26.8210026 44.8093089,26.9617701 C44.89131,27.1029285 44.9559051,27.2542535 45.0023208,27.4177001 C45.0487365,27.5799736 45.0711707,27.7500676 45.0711707,27.9271999 C45.0711707,28.1043322 45.0487365,28.2744262 45.0023208,28.4374817 C44.9559051,28.6001463 44.8909232,28.7526443 44.8077617,28.8930207 C44.7242135,29.0337881 44.624033,29.1616519 44.5072202,29.2762209 C44.3907942,29.3907899 44.2619907,29.4885451 44.1211965,29.5698774 C43.9800155,29.6508186 43.8287777,29.7137729 43.6667096,29.7579583 C43.5046416,29.8021436 43.3367715,29.8244318 43.1634863,29.8244318 L41.7802991,29.8244318 L41.7802991,26.030359 L41.7802991,26.030359 Z" id="Fill-36"></path>
                <polyline id="Fill-37" points="49.7955132 25.6807866 49.7955132 26.5687944 51.3376741 26.5687944 51.3376741 27.739119 49.7955132 27.739119 49.7955132 28.6544982 51.4227695 28.6544982 51.4227695 29.8240407 48.4305054 29.8240407 48.4305054 24.510071 51.4227695 24.510071 51.4227695 25.6807866 49.7955132 25.6807866"></polyline>
                <polyline id="Fill-38" points="52.9571944 24.510462 54.3222022 24.510462 56.8274884 27.759452 56.8414131 27.759452 56.8414131 24.510462 58.2068076 24.510462 58.2068076 29.8244318 56.8414131 29.8244318 54.3392212 26.5687944 54.3222022 26.5687944 54.3222022 29.8244318 52.9571944 29.8244318 52.9571944 24.510462"></polyline>
                <polyline id="Fill-39" points="61.9691851 27.739119 63.2456163 24.510071 64.7301444 24.510071 62.48672 29.8248228 61.4241877 29.8248228 59.2144146 24.510071 60.7028107 24.510071 61.9691851 27.739119"></polyline>
                <polygon id="Fill-40" points="65.7420062 29.8236497 67.1074007 29.8236497 67.1074007 24.510071 65.7420062 24.510071"></polygon>
                <path d="M70.0520887,26.8925594 L70.1847602,26.8925594 C70.2961578,26.8925594 70.408329,26.884739 70.5216606,26.8698802 C70.6353791,26.8546304 70.7371068,26.8237398 70.8283909,26.7768173 C70.9185147,26.7298948 70.9927798,26.6634213 71.0492522,26.5773968 C71.1064982,26.4905903 71.1347344,26.3760212 71.1347344,26.2309526 C71.1347344,26.086666 71.1064982,25.9709239 71.0492522,25.8837263 C70.9927798,25.7965287 70.9185147,25.7292732 70.8283909,25.6819597 C70.7371068,25.6350372 70.6353791,25.6041466 70.5216606,25.5896788 C70.408329,25.574429 70.2961578,25.5666086 70.1847602,25.5666086 L70.0520887,25.5666086 L70.0520887,26.8925594 Z M73.0578907,29.8244318 L71.3555957,29.8244318 L70.068721,27.7801761 L70.0520887,27.7801761 L70.0520887,29.8244318 L68.6866942,29.8244318 L68.6866942,24.510462 L70.7293708,24.510462 C70.9881382,24.510462 71.2294997,24.5425257 71.4526818,24.6066531 C71.6766374,24.6711715 71.8700361,24.7697087 72.0332646,24.9026557 C72.1968798,25.0359937 72.3245229,25.2049146 72.4177411,25.4102004 C72.5105725,25.6158772 72.5573749,25.8606561 72.5573749,26.1453191 C72.5573749,26.3287077 72.5326199,26.503885 72.4827231,26.6700687 C72.4328262,26.8366435 72.3589479,26.9860133 72.2610882,27.1189603 C72.1636153,27.2522983 72.0433213,27.3649123 71.9002063,27.4568021 C71.7574781,27.5479099 71.5927024,27.6116463 71.4070397,27.6456651 L73.0578907,29.8244318 L73.0578907,29.8244318 Z" id="Fill-41"></path>
                <path d="M76.6187468,25.6733572 C76.414131,25.6733572 76.2226663,25.7120683 76.0431924,25.7887083 C75.8637184,25.8661304 75.7066787,25.9689688 75.5712996,26.0987876 C75.4366942,26.2286065 75.3295513,26.3775853 75.2518051,26.5461152 C75.1732852,26.7150361 75.1342187,26.8909953 75.1342187,27.074775 C75.1342187,27.303522 75.1732852,27.5154552 75.2518051,27.7097924 C75.3295513,27.9033476 75.4366942,28.0703134 75.5712996,28.2122539 C75.7066787,28.3534123 75.8637184,28.4625071 76.0431924,28.5418842 C76.2226663,28.6216524 76.414131,28.6611455 76.6187468,28.6611455 C76.822589,28.6611455 77.015214,28.6216524 77.1958484,28.5418842 C77.3760959,28.4625071 77.5331356,28.3534123 77.6669675,28.2122539 C77.801573,28.0703134 77.9071686,27.9033476 77.9856885,27.7097924 C78.0638216,27.5154552 78.1028881,27.303522 78.1028881,27.074775 C78.1028881,26.8909953 78.0638216,26.7150361 77.9856885,26.5461152 C77.9071686,26.3775853 77.801573,26.2286065 77.6669675,26.0987876 C77.5331356,25.9689688 77.3760959,25.8661304 77.1958484,25.7887083 C77.015214,25.7120683 76.822589,25.6733572 76.6187468,25.6733572 M76.6187468,24.3345027 C76.8705518,24.3345027 77.1177153,24.3653934 77.3590768,24.4263926 C77.6008252,24.4870008 77.8294224,24.5738073 78.0448685,24.6864213 C78.2607014,24.7986442 78.4591284,24.9355014 78.6405364,25.0973839 C78.8223311,25.2592664 78.9785972,25.441091 79.1089479,25.6444217 C79.2396854,25.8473614 79.3417999,26.067897 79.4156782,26.3072016 C79.4891697,26.5457242 79.5263022,26.7987145 79.5263022,27.0673456 C79.5263022,27.4990323 79.4539711,27.8939631 79.3100825,28.25292 C79.1654203,28.6122679 78.9642857,28.9207832 78.7059051,29.1788568 C78.4467509,29.4377124 78.1396338,29.638306 77.7845539,29.7829836 C77.4290872,29.9272702 77.0407427,30 76.6187468,30 C76.3371583,30 76.0698814,29.9675453 75.8165291,29.9014628 C75.5639505,29.8365534 75.3295513,29.7430995 75.1152656,29.6211011 C74.9009799,29.4998847 74.7068076,29.3524699 74.5335224,29.1788568 C74.3598504,29.0056347 74.2120939,28.8101244 74.0906395,28.5923259 C73.9695719,28.3745274 73.875967,28.1371779 73.8102114,27.8814505 C73.7440691,27.626114 73.7111913,27.3543547 73.7111913,27.0673456 C73.7111913,26.7987145 73.7483239,26.5457242 73.8214286,26.3072016 C73.8953069,26.067897 73.9981949,25.8473614 74.1300928,25.6444217 C74.2616039,25.441091 74.4174832,25.2592664 74.5977308,25.0973839 C74.7783651,24.9355014 74.9764054,24.7986442 75.1918515,24.6864213 C75.4076844,24.5738073 75.6362816,24.4870008 75.8780299,24.4263926 C76.1197782,24.3653934 76.3665549,24.3345027 76.6187468,24.3345027" id="Fill-43"></path>
                <polyline id="Fill-45" points="80.9783394 24.510462 82.3437339 24.510462 84.8494069 27.759452 84.8629448 27.759452 84.8629448 24.510462 86.2279526 24.510462 86.2279526 29.8244318 84.8629448 29.8244318 82.360753 26.5687944 82.3437339 26.5687944 82.3437339 29.8244318 80.9783394 29.8244318 80.9783394 24.510462"></polyline>
                <polyline id="Fill-46" points="88.3708097 24.510462 89.715704 24.510462 90.7848118 27.3500535 91.9115523 24.510462 93.2734657 24.510462 94.066787 29.8244318 92.7017793 29.8244318 92.3165291 26.7646957 92.3029912 26.7646957 91.040098 29.8244318 90.4985817 29.8244318 89.2898401 26.7646957 89.276689 26.7646957 88.8372873 29.8244318 87.4796287 29.8244318 88.3708097 24.510462"></polyline>
                <polyline id="Fill-47" points="96.7008767 25.6807866 96.7008767 26.5687944 98.2434244 26.5687944 98.2434244 27.739119 96.7008767 27.739119 96.7008767 28.6544982 98.3277463 28.6544982 98.3277463 29.8240407 95.3354822 29.8240407 95.3354822 24.510071 98.3277463 24.510071 98.3277463 25.6807866 96.7008767 25.6807866"></polyline>
                <polyline id="Fill-48" points="99.8621712 24.510462 101.227953 24.510462 103.733239 27.759452 103.74639 27.759452 103.74639 24.510462 105.112171 24.510462 105.112171 29.8244318 103.74639 29.8244318 101.244585 26.5687944 101.227953 26.5687944 101.227953 29.8244318 99.8621712 29.8244318 99.8621712 24.510462"></polyline>
                <polyline id="Fill-49" points="108.709386 29.8244318 107.344379 29.8244318 107.344379 25.6807866 106.21377 25.6807866 106.21377 24.510462 109.839995 24.510462 109.839995 25.6807866 108.709386 25.6807866 108.709386 29.8244318"></polyline>
                <path d="M112.904203,26.1519664 L112.890665,26.1519664 L112.325554,27.8450856 L113.462352,27.8450856 L112.904203,26.1519664 Z M111.947267,28.9016232 L111.586772,29.8244318 L110.136282,29.8244318 L112.158845,24.510462 L113.649948,24.510462 L115.631511,29.8244318 L114.174059,29.8244318 L113.830583,28.9016232 L111.947267,28.9016232 L111.947267,28.9016232 Z" id="Fill-50"></path>
                <polyline id="Fill-51" points="118.206421 28.6544982 119.847602 28.6544982 119.847602 29.8248228 116.841026 29.8248228 116.841026 24.510071 118.206421 24.510071 118.206421 28.6544982"></polyline>
                <path d="M126.965059,25.8766879 C126.837803,25.7715034 126.697009,25.6862609 126.543063,25.6221335 C126.387958,25.5576151 126.22705,25.5255514 126.05918,25.5255514 C125.995358,25.5255514 125.92999,25.535327 125.861527,25.5529229 C125.793837,25.5716919 125.730402,25.5994543 125.673156,25.6358193 C125.61475,25.6729662 125.566787,25.7191066 125.529654,25.7754136 C125.492522,25.8317206 125.473569,25.896239 125.473569,25.9693598 C125.473569,26.0475639 125.494069,26.1144284 125.53507,26.1691713 C125.575683,26.2243052 125.627127,26.2712277 125.688241,26.3103298 C125.749355,26.3490408 125.815111,26.3822775 125.885508,26.4084759 C125.955518,26.4350653 126.020887,26.4573535 126.080067,26.4753404 L126.426637,26.5824801 C126.610753,26.637614 126.781331,26.7029144 126.939144,26.7803365 C127.09657,26.8569765 127.23427,26.9527766 127.349536,27.0677366 C127.465575,27.1823057 127.556472,27.3183808 127.624162,27.4755711 C127.690304,27.6323704 127.724342,27.8192782 127.724342,28.0347305 C127.724342,28.1653314 127.715833,28.2971054 127.698814,28.4284883 C127.681795,28.5606532 127.652011,28.688517 127.610237,28.8124705 C127.568076,28.936424 127.511991,29.0541212 127.441594,29.1655621 C127.371196,29.2766119 127.283394,29.3767132 127.178958,29.4662569 C126.972795,29.6433892 126.739943,29.7704709 126.479629,29.848284 C126.219701,29.9268792 125.955518,29.9655902 125.688241,29.9655902 C125.356756,29.9655902 125.033007,29.9120204 124.718154,29.8052717 C124.402527,29.6985231 124.109722,29.5503263 123.840124,29.3598993 L124.424961,28.2443176 C124.511604,28.3209576 124.601341,28.3917323 124.694172,28.4582058 C124.787004,28.5246793 124.884863,28.5829414 124.986204,28.6337741 C125.089479,28.6838247 125.193914,28.7237088 125.303378,28.7522533 C125.412068,28.7807978 125.524626,28.7956566 125.640665,28.7956566 C125.719959,28.7956566 125.799639,28.785099 125.878932,28.764766 C125.957839,28.7436509 126.029397,28.7115872 126.091284,28.6681839 C126.154332,28.6239986 126.205003,28.5688647 126.243296,28.5012181 C126.281975,28.4331805 126.300928,28.3526303 126.300928,28.2587853 C126.300928,28.1622033 126.271532,28.0804799 126.212352,28.0143975 C126.153559,27.9475329 126.081227,27.8904439 125.995745,27.8431305 C125.911037,27.796599 125.8213,27.758279 125.725761,27.7281704 C125.630222,27.6988439 125.546287,27.6734275 125.473569,27.6527034 C125.258123,27.5905312 125.06279,27.5260128 124.887958,27.4599303 C124.713512,27.3930658 124.564595,27.3054771 124.440433,27.1967734 C124.316658,27.0880697 124.220732,26.9504305 124.153043,26.7854198 C124.08458,26.6200181 124.050155,26.4088669 124.050155,26.1515754 C124.050155,25.8837263 124.095023,25.6393384 124.184373,25.4188028 C124.274884,25.1986582 124.400593,25.0109684 124.561114,24.8561242 C124.722408,24.7016711 124.913486,24.5816278 125.134734,24.4963853 C125.356369,24.4115338 125.598504,24.3693036 125.861527,24.3693036 C125.993424,24.3693036 126.131511,24.3794701 126.276947,24.4001942 C126.421996,24.4209183 126.566271,24.4502448 126.709386,24.4877828 C126.852501,24.5257118 126.992135,24.5718522 127.127901,24.6258131 C127.264054,24.6797739 127.39131,24.7399911 127.50967,24.8064646 L126.965059,25.8766879" id="Fill-52"></path>
                <path d="M132.774755,26.2931249 C132.704745,26.1965428 132.623904,26.1128644 132.534941,26.0405256 C132.445591,25.9677957 132.348891,25.9071875 132.245229,25.8575279 C132.142341,25.8082593 132.034038,25.7718944 131.92032,25.7460871 C131.807375,25.7206707 131.692109,25.7081581 131.57607,25.7081581 C131.367586,25.7081581 131.177282,25.7460871 131.004771,25.821554 C130.831872,25.897412 130.684116,26.0018145 130.562274,26.1347615 C130.439273,26.2677085 130.344121,26.4237257 130.276044,26.6032042 C130.207968,26.7822916 130.17393,26.9750648 130.17393,27.1811326 C130.17393,27.3922837 130.207968,27.5858389 130.276044,27.7625802 C130.344121,27.9393215 130.440046,28.0918195 130.564982,28.2189012 C130.689917,28.3459829 130.839995,28.4456932 131.01444,28.518423 C131.189273,28.5903708 131.383445,28.6263447 131.596957,28.6263447 C131.707968,28.6263447 131.818592,28.613441 131.928829,28.5872426 C132.039067,28.5602622 132.144662,28.5227242 132.245229,28.4738467 C132.346957,28.4245781 132.442109,28.3647519 132.531073,28.2963233 C132.62081,28.2275037 132.702811,28.1496906 132.774755,28.062102 L132.774755,29.7176831 C132.661037,29.7520929 132.555054,29.7845477 132.454874,29.8158293 C132.35508,29.8463289 132.257607,29.8733093 132.162068,29.8948155 C132.066916,29.9167126 131.970603,29.9343085 131.874291,29.9468212 C131.777978,29.9593339 131.676637,29.9655902 131.569881,29.9655902 C131.20165,29.9655902 130.849665,29.8975526 130.512378,29.7626505 C130.175477,29.6273574 129.86952,29.4341932 129.594894,29.18394 C129.304409,28.918046 129.091284,28.6157871 128.955132,28.2771633 C128.818979,27.9389305 128.751289,27.5709801 128.751289,27.1740942 C128.751289,26.809663 128.816658,26.4593086 128.948169,26.124595 C129.07968,25.7894903 129.272692,25.4915327 129.527205,25.2295489 C129.656395,25.0966019 129.798736,24.9765585 129.952295,24.8698099 C130.106627,24.7638433 130.269856,24.6727356 130.441207,24.5980506 C130.612945,24.5237567 130.789711,24.4666677 130.973827,24.4275656 C131.157942,24.3888546 131.341671,24.3693036 131.5254,24.3693036 C131.745874,24.3693036 131.958226,24.3927648 132.162068,24.4400783 C132.366297,24.4870008 132.5713,24.5526922 132.774755,24.6375437 L132.774755,26.2931249" id="Fill-53"></path>
                <polygon id="Fill-54" points="134.316142 29.8236497 135.681924 29.8236497 135.681924 24.510071 134.316142 24.510071"></polygon>
                <polyline id="Fill-55" points="138.626612 25.6807866 138.626612 26.5687944 140.168386 26.5687944 140.168386 27.739119 138.626612 27.739119 138.626612 28.6544982 140.253868 28.6544982 140.253868 29.8240407 137.261217 29.8240407 137.261217 24.510071 140.253868 24.510071 140.253868 25.6807866 138.626612 25.6807866"></polyline>
                <polyline id="Fill-56" points="141.924059 24.510462 143.289453 24.510462 145.795513 27.759452 145.808277 27.759452 145.808277 24.510462 147.174446 24.510462 147.174446 29.8244318 145.808277 29.8244318 143.306859 26.5687944 143.289453 26.5687944 143.289453 29.8244318 141.924059 29.8244318 141.924059 24.510462"></polyline>
                <path d="M152.36836,26.2931249 C152.29835,26.1965428 152.217896,26.1128644 152.128546,26.0405256 C152.039195,25.9677957 151.942496,25.9071875 151.838834,25.8575279 C151.736333,25.8082593 151.627256,25.7718944 151.513538,25.7460871 C151.400593,25.7206707 151.286101,25.7081581 151.170062,25.7081581 C150.961578,25.7081581 150.770887,25.7460871 150.597989,25.821554 C150.425477,25.897412 150.27772,26.0018145 150.155879,26.1347615 C150.032878,26.2677085 149.937726,26.4237257 149.869649,26.6032042 C149.801573,26.7822916 149.767535,26.9750648 149.767535,27.1811326 C149.767535,27.3922837 149.801573,27.5858389 149.869649,27.7625802 C149.937726,27.9393215 150.033651,28.0918195 150.158587,28.2189012 C150.283909,28.3459829 150.4336,28.4456932 150.608432,28.518423 C150.783651,28.5903708 150.97705,28.6263447 151.190562,28.6263447 C151.30196,28.6263447 151.412197,28.613441 151.522434,28.5872426 C151.632285,28.5602622 151.73788,28.5227242 151.838834,28.4738467 C151.940175,28.4245781 152.035714,28.3647519 152.124678,28.2963233 C152.214415,28.2275037 152.296029,28.1496906 152.36836,28.062102 L152.36836,29.7176831 C152.254255,29.7520929 152.148272,29.7845477 152.048092,29.8158293 C151.948298,29.8463289 151.850825,29.8733093 151.755673,29.8948155 C151.660521,29.9167126 151.564208,29.9343085 151.467509,29.9468212 C151.371196,29.9593339 151.270242,29.9655902 151.163486,29.9655902 C150.795255,29.9655902 150.442883,29.8975526 150.105982,29.7626505 C149.769082,29.6273574 149.463125,29.4341932 149.188886,29.18394 C148.898014,28.918046 148.684502,28.6157871 148.54835,28.2771633 C148.412197,27.9389305 148.344507,27.5709801 148.344507,27.1740942 C148.344507,26.809663 148.409876,26.4593086 148.541387,26.124595 C148.673285,25.7894903 148.866684,25.4915327 149.120423,25.2295489 C149.25,25.0966019 149.391955,24.9765585 149.5459,24.8698099 C149.700232,24.7638433 149.863074,24.6727356 150.034425,24.5980506 C150.206163,24.5237567 150.383703,24.4666677 150.567818,24.4275656 C150.751547,24.3888546 150.934889,24.3693036 151.119391,24.3693036 C151.339092,24.3693036 151.551444,24.3927648 151.755673,24.4400783 C151.960289,24.4870008 152.164518,24.5526922 152.36836,24.6375437 L152.36836,26.2931249" id="Fill-57"></path>
                <polyline id="Fill-58" points="155.2705 25.6807866 155.2705 26.5687944 156.813048 26.5687944 156.813048 27.739119 155.2705 27.739119 155.2705 28.6544982 156.89737 28.6544982 156.89737 29.8240407 153.905106 29.8240407 153.905106 24.510071 156.89737 24.510071 156.89737 25.6807866 155.2705 25.6807866"></polyline>
                <path d="M161.240717,25.8766879 C161.113461,25.7715034 160.972666,25.6862609 160.818334,25.6221335 C160.664002,25.5576151 160.503481,25.5255514 160.335224,25.5255514 C160.271403,25.5255514 160.205647,25.535327 160.137571,25.5529229 C160.069495,25.5716919 160.006447,25.5994543 159.948814,25.6358193 C159.891181,25.6729662 159.842831,25.7191066 159.805312,25.7754136 C159.768179,25.8317206 159.749226,25.896239 159.749226,25.9693598 C159.749226,26.0475639 159.769727,26.1144284 159.811114,26.1691713 C159.851728,26.2243052 159.902398,26.2712277 159.964286,26.3103298 C160.025013,26.3490408 160.090768,26.3822775 160.161166,26.4084759 C160.231563,26.4350653 160.296158,26.4573535 160.355725,26.4753404 L160.702295,26.5824801 C160.886411,26.637614 161.057375,26.7029144 161.215188,26.7803365 C161.373002,26.8569765 161.509928,26.9527766 161.625193,27.0677366 C161.741233,27.1823057 161.832517,27.3183808 161.899046,27.4755711 C161.966349,27.6323704 162,27.8192782 162,28.0347305 C162,28.1653314 161.991104,28.2971054 161.974085,28.4284883 C161.957452,28.5606532 161.927669,28.688517 161.885895,28.8124705 C161.843347,28.936424 161.787648,29.0541212 161.717251,29.1655621 C161.646854,29.2766119 161.559438,29.3767132 161.455389,29.4662569 C161.248453,29.6433892 161.015601,29.7704709 160.755286,29.848284 C160.495745,29.9268792 160.231563,29.9655902 159.964286,29.9655902 C159.6328,29.9655902 159.309051,29.9120204 158.993811,29.8052717 C158.678571,29.6985231 158.385379,29.5503263 158.115781,29.3598993 L158.701006,28.2443176 C158.787261,28.3209576 158.876612,28.3917323 158.96983,28.4582058 C159.062661,28.5246793 159.160521,28.5829414 159.262635,28.6337741 C159.365137,28.6838247 159.470346,28.7237088 159.579422,28.7522533 C159.688112,28.7807978 159.800284,28.7956566 159.916323,28.7956566 C159.995616,28.7956566 160.075297,28.785099 160.15459,28.764766 C160.233883,28.7436509 160.305054,28.7115872 160.367329,28.6681839 C160.42999,28.6239986 160.479887,28.5688647 160.518953,28.5012181 C160.557246,28.4331805 160.576973,28.3526303 160.576973,28.2587853 C160.576973,28.1622033 160.547576,28.0804799 160.488396,28.0143975 C160.429216,27.9475329 160.357272,27.8904439 160.27179,27.8431305 C160.187081,27.796599 160.096957,27.758279 160.001805,27.7281704 C159.906653,27.6988439 159.821944,27.6734275 159.749226,27.6527034 C159.53378,27.5905312 159.338448,27.5260128 159.164002,27.4599303 C158.988783,27.3930658 158.839479,27.3054771 158.716478,27.1967734 C158.591929,27.0880697 158.49639,26.9504305 158.427927,26.7854198 C158.360624,26.6200181 158.326586,26.4088669 158.326586,26.1515754 C158.326586,25.8837263 158.371068,25.6393384 158.460418,25.4188028 C158.550542,25.1986582 158.676251,25.0109684 158.837158,24.8561242 C158.998453,24.7016711 159.189144,24.5816278 159.410392,24.4963853 C159.632414,24.4115338 159.874549,24.3693036 160.137571,24.3693036 C160.269082,24.3693036 160.407555,24.3794701 160.552991,24.4001942 C160.698427,24.4209183 160.842316,24.4502448 160.985431,24.4877828 C161.128159,24.5257118 161.268179,24.5718522 161.403945,24.6258131 C161.539711,24.6797739 161.666968,24.7399911 161.785327,24.8064646 L161.240717,25.8766879" id="Fill-59"></path>
            </g>
        </g>
    </g>
</svg>