<?xml version="1.0" encoding="UTF-8"?>
<svg width="99px" height="99px" viewBox="0 0 99 99" version="1.1" xmlns="http://www.w3.org/2000/svg" xmlns:xlink="http://www.w3.org/1999/xlink">
    <title>square</title>
    <g id="Symbols" stroke="none" stroke-width="1" fill="none" fill-rule="evenodd">
        <g id="square">
            <g id="goldlines" transform="translate(1, 2.0443)">
                <polyline id="Stroke-1" stroke="#DDB208" stroke-width="2" stroke-linecap="square" stroke-linejoin="round" points="1.3133 38.108 1.3133 0.194 31.8643 8.52651283e-14"></polyline>
                <path d="M18.0653,94.7398 C40.0123,84.0578 58.2193,57.9928 59.6923,31.8898 C60.2693,21.6238 56.9353,11.4328 53.1253,2.3808" id="Stroke-3" stroke="#DDB208" stroke-width="2" stroke-linecap="square" stroke-linejoin="bevel"></path>
                <polyline id="Stroke-68" stroke="#DDB208" stroke-width="2" stroke-linecap="round" stroke-linejoin="round" points="3.0873 44.6509 18.5523 44.6509 18.5523 66.9879"></polyline>
                <polyline id="Stroke-104" stroke="#DDB208" stroke-width="2" stroke-linecap="square" stroke-linejoin="round" points="18.5521 45.607 18.5521 26.663 29.6841 26.663"></polyline>
                <line x1="9.8212" y1="18.9419" x2="9.8212" y2="35.8699" id="Stroke-108" stroke="#DDB208" stroke-width="2" stroke-linecap="square" stroke-linejoin="round"></line>
                <polyline id="Stroke-112" stroke="#DDB208" stroke-width="2" stroke-linecap="square" stroke-linejoin="round" points="31.579 6.1509 10.346 6.1509 9.821 6.1509 9.821 10.3669"></polyline>
                <polyline id="Stroke-114" stroke="#DDB208" stroke-width="2" stroke-linecap="square" stroke-linejoin="round" points="46.369 7.5464 46.369 34.7554 46.369 39.4994 26.313 39.4994 26.313 60.6394 26.313 76.3834 10.346 76.3834 10.346 53.6274"></polyline>
                <g id="Group-123" transform="translate(0, 50.7835)">
                    <line x1="1.0438" y1="0.3635" x2="1.0438" y2="9.4135" id="Fill-120" fill="#BB8D0A"></line>
                    <line x1="1.0438" y1="0.3635" x2="1.0438" y2="9.4135" id="Stroke-122" stroke="#DDB208" stroke-width="2" stroke-linecap="square" stroke-linejoin="round"></line>
                </g>
                <polyline id="Stroke-130" stroke="#DDB208" stroke-width="2" stroke-linecap="square" stroke-linejoin="round" points="43.995 46.6949 32.235 46.6949 32.235 69.4779"></polyline>
                <g id="Group-135" transform="translate(32, 58.7835)">
                    <line x1="0.8309" y1="0.6692" x2="6.1429" y2="0.6692" id="Fill-132" fill="#BB8D0A"></line>
                    <line x1="0.8309" y1="0.6692" x2="6.1429" y2="0.6692" id="Stroke-134" stroke="#DDB208" stroke-width="2" stroke-linecap="square" stroke-linejoin="bevel"></line>
                </g>
                <polyline id="Stroke-158" stroke="#DDB208" stroke-width="2" stroke-linecap="square" stroke-linejoin="round" points="12.39 94.7398 1.313 94.7398 1.313 71.1288"></polyline>
                <g id="Group-163" transform="translate(8, 84.7835)">
                    <line x1="0.3905" y1="1.3967" x2="10.5525" y2="1.3967" id="Fill-160" fill="#004B84"></line>
                    <line x1="0.3905" y1="1.3967" x2="10.5525" y2="1.3967" id="Stroke-162" stroke="#DDB208" stroke-width="2" stroke-linejoin="bevel"></line>
                </g>
                <polyline id="Stroke-106" stroke="#DDB208" stroke-width="2" stroke-linecap="round" stroke-linejoin="round" points="25.4623 33.9185 40.1993 33.9185 40.1993 19.1505 25.4623 19.1505"></polyline>
                <polyline id="Stroke-110" stroke="#DDB208" stroke-width="2" stroke-linecap="square" stroke-linejoin="round" points="18.3299 16.9644 18.3299 12.1044 29.6839 12.1044 40.1769 12.1044 40.1769 1.6424"></polyline>
                <line x1="51.951" y1="27.9878" x2="47.369" y2="27.9878" id="Stroke-118" stroke="#DDB208" stroke-width="2" stroke-linecap="square" stroke-linejoin="bevel"></line>
            </g>
            <g id="bluelines" transform="translate(48.7685, 2.3807)" stroke="#004B84" stroke-width="2">
                <polyline id="Stroke-7" stroke-linejoin="round" points="47.3276 92.42 47.6916 0.256 18.2986 3.55271368e-14"></polyline>
                <line x1="11.0585" y1="93.9962" x2="41.5735" y2="93.9962" id="Stroke-9" stroke-linecap="square" stroke-linejoin="bevel"></line>
                <path d="M17.893,4.6514 C19.4785501,7.90212381 20.4705221,11.3808908 21.2782457,14.9772529 C21.8704303,17.6139348 22.363579,20.3138255 22.919,23.0334 C28.456,50.1584 18.888,76.8414 2.18491891e-13,94.4034" id="Stroke-11" stroke-linecap="round" stroke-linejoin="bevel"></path>
                <polyline id="Stroke-136" stroke-linejoin="round" points="16.9013 86.2804 41.2033 86.2804 41.2033 58.1874"></polyline>
                <line x1="26.7157" y1="86.2804" x2="26.7157" y2="74.7864" id="Stroke-140" stroke-linejoin="bevel"></line>
                <polyline id="Stroke-142" stroke-linecap="square" stroke-linejoin="round" points="33.8778 78.4903 33.8778 56.6663 33.8778 49.5273 40.6918 49.5273"></polyline>
                <polyline id="Stroke-144" stroke-linecap="square" stroke-linejoin="round" points="27.1337 12.2345 27.1337 4.6515 41.2037 4.6515 41.2037 20.9785"></polyline>
                <line x1="34.1689" y1="10.6534" x2="34.1689" y2="40.8574" id="Stroke-148" stroke-linecap="square" stroke-linejoin="round"></line>
                <line x1="34.1689" y1="32.8858" x2="39.8299" y2="32.8858" id="Stroke-152" stroke-linejoin="round"></line>
                <line x1="28.2963" y1="59.1182" x2="34.1693" y2="59.1182" id="Stroke-156" stroke-linejoin="bevel"></line>
            </g>
            <g id="bluedots" transform="translate(47.1561, 0.3378)" fill="#004B84">
                <path d="M-2.30926389e-13,96.0391 C-2.30926389e-13,94.9101 0.915,93.9951 2.043,93.9951 C3.172,93.9951 4.087,94.9101 4.087,96.0391 C4.087,97.1671 3.172,98.0821 2.043,98.0821 C0.915,98.0821 -2.30926389e-13,97.1671 -2.30926389e-13,96.0391" id="Fill-13"></path>
                <path d="M40.7725,96.0391 C40.7725,94.9101 41.6875,93.9951 42.8155,93.9951 C43.9445,93.9951 44.8595,94.9101 44.8595,96.0391 C44.8595,97.1671 43.9445,98.0821 42.8155,98.0821 C41.6875,98.0821 40.7725,97.1671 40.7725,96.0391" id="Fill-37"></path>
                <path d="M40.7725,51.5703 C40.7725,50.4413 41.6875,49.5273 42.8155,49.5273 C43.9445,49.5273 44.8595,50.4413 44.8595,51.5703 C44.8595,52.6993 43.9445,53.6133 42.8155,53.6133 C41.6875,53.6133 40.7725,52.6993 40.7725,51.5703" id="Fill-39"></path>
                <path d="M40.7725,25.0645 C40.7725,23.9365 41.6875,23.0215 42.8155,23.0215 C43.9445,23.0215 44.8595,23.9365 44.8595,25.0645 C44.8595,26.1935 43.9445,27.1085 42.8155,27.1085 C41.6875,27.1085 40.7725,26.1935 40.7725,25.0645" id="Fill-41"></path>
                <path d="M33.7378,12.8145 C33.7378,11.6865 34.6528,10.7715 35.7808,10.7715 C36.9098,10.7715 37.8238,11.6865 37.8238,12.8145 C37.8238,13.9435 36.9098,14.8585 35.7808,14.8585 C34.6528,14.8585 33.7378,13.9435 33.7378,12.8145" id="Fill-43"></path>
                <path d="M17.4619,88.3233 C17.4619,87.1953 18.3769,86.2803 19.5049,86.2803 C20.6339,86.2803 21.5479,87.1953 21.5479,88.3233 C21.5479,89.4523 20.6339,90.3673 19.5049,90.3673 C18.3769,90.3673 17.4619,89.4523 17.4619,88.3233" id="Fill-45"></path>
                <path d="M33.4468,80.1143 C33.4468,78.9863 34.3618,78.0713 35.4898,78.0713 C36.6188,78.0713 37.5338,78.9863 37.5338,80.1143 C37.5338,81.2433 36.6188,82.1583 35.4898,82.1583 C34.3618,82.1583 33.4468,81.2433 33.4468,80.1143" id="Fill-47"></path>
                <path d="M48.9531,93.9951 C47.8251,93.9951 46.9101,94.9101 46.9101,96.0391 C46.9101,97.1671 47.8251,98.0821 48.9531,98.0821 C50.0811,98.0821 50.9961,97.1671 50.9961,96.0391 C50.9961,94.9101 50.0811,93.9951 48.9531,93.9951 M48.9531,94.9951 C49.5281,94.9951 49.9961,95.4641 49.9961,96.0391 C49.9961,96.6141 49.5281,97.0821 48.9531,97.0821 C48.3781,97.0821 47.9101,96.6141 47.9101,96.0391 C47.9101,95.4641 48.3781,94.9951 48.9531,94.9951" id="Fill-49"></path>
                <path d="M10.6275,93.9951 C9.4995,93.9951 8.5845,94.9101 8.5845,96.0391 C8.5845,97.1671 9.4995,98.0821 10.6275,98.0821 C11.7555,98.0821 12.6705,97.1671 12.6705,96.0391 C12.6705,94.9101 11.7555,93.9951 10.6275,93.9951 M10.6275,94.9951 C11.2025,94.9951 11.6705,95.4641 11.6705,96.0391 C11.6705,96.6141 11.2025,97.0821 10.6275,97.0821 C10.0525,97.0821 9.5845,96.6141 9.5845,96.0391 C9.5845,95.4641 10.0525,94.9951 10.6275,94.9951" id="Fill-52"></path>
                <path d="M18.5811,-7.10542736e-15 C17.4531,-7.10542736e-15 16.5381,0.915 16.5381,2.044 C16.5381,3.172 17.4531,4.087 18.5811,4.087 C19.7091,4.087 20.6241,3.172 20.6241,2.044 C20.6241,0.915 19.7091,-7.10542736e-15 18.5811,-7.10542736e-15 M18.5811,1 C19.1561,1 19.6241,1.468 19.6241,2.044 C19.6241,2.619 19.1561,3.087 18.5811,3.087 C18.0061,3.087 17.5381,2.619 17.5381,2.044 C17.5381,1.468 18.0061,1 18.5811,1" id="Fill-54"></path>
                <path d="M35.7813,42.9004 C34.6523,42.9004 33.7383,43.8154 33.7383,44.9434 C33.7383,46.0724 34.6523,46.9874 35.7813,46.9874 C36.9093,46.9874 37.8243,46.0724 37.8243,44.9434 C37.8243,43.8154 36.9093,42.9004 35.7813,42.9004 M35.7813,43.9004 C36.3563,43.9004 36.8243,44.3684 36.8243,44.9434 C36.8243,45.5184 36.3563,45.9874 35.7813,45.9874 C35.2053,45.9874 34.7383,45.5184 34.7383,44.9434 C34.7383,44.3684 35.2053,43.9004 35.7813,43.9004" id="Fill-56"></path>
                <path d="M42.8159,33.04 C41.6879,33.04 40.7729,33.955 40.7729,35.083 C40.7729,36.212 41.6879,37.127 42.8159,37.127 C43.9439,37.127 44.8589,36.212 44.8589,35.083 C44.8589,33.955 43.9439,33.04 42.8159,33.04 M42.8159,34.04 C43.3909,34.04 43.8589,34.508 43.8589,35.083 C43.8589,35.658 43.3909,36.127 42.8159,36.127 C42.2409,36.127 41.7729,35.658 41.7729,35.083 C41.7729,34.508 42.2409,34.04 42.8159,34.04" id="Fill-58"></path>
                <path d="M42.8159,56.665 C41.6879,56.665 40.7729,57.58 40.7729,58.708 C40.7729,59.837 41.6879,60.752 42.8159,60.752 C43.9439,60.752 44.8589,59.837 44.8589,58.708 C44.8589,57.58 43.9439,56.665 42.8159,56.665 M42.8159,57.665 C43.3909,57.665 43.8589,58.133 43.8589,58.708 C43.8589,59.283 43.3909,59.752 42.8159,59.752 C42.2409,59.752 41.7729,59.283 41.7729,58.708 C41.7729,58.133 42.2409,57.665 42.8159,57.665" id="Fill-60"></path>
                <path d="M28.3281,73.0606 C27.1991,73.0606 26.2851,73.9756 26.2851,75.1036 C26.2851,76.2326 27.1991,77.1476 28.3281,77.1476 C29.4561,77.1476 30.3711,76.2326 30.3711,75.1036 C30.3711,73.9756 29.4561,73.0606 28.3281,73.0606 M28.3281,74.0606 C28.9031,74.0606 29.3711,74.5286 29.3711,75.1036 C29.3711,75.6786 28.9031,76.1476 28.3281,76.1476 C27.7521,76.1476 27.2851,75.6786 27.2851,75.1036 C27.2851,74.5286 27.7521,74.0606 28.3281,74.0606" id="Fill-62"></path>
                <path d="M28.3281,59.1172 C27.1991,59.1172 26.2851,60.0322 26.2851,61.1612 C26.2851,62.2892 27.1991,63.2042 28.3281,63.2042 C29.4561,63.2042 30.3711,62.2892 30.3711,61.1612 C30.3711,60.0322 29.4561,59.1172 28.3281,59.1172 M28.3281,60.1172 C28.9031,60.1172 29.3711,60.5862 29.3711,61.1612 C29.3711,61.7362 28.9031,62.2042 28.3281,62.2042 C27.7521,62.2042 27.2851,61.7362 27.2851,61.1612 C27.2851,60.5862 27.7521,60.1172 28.3281,60.1172" id="Fill-64"></path>
                <path d="M28.7481,14.9443 C28.0701,14.9443 27.4061,15.2823 27.0181,15.8983 C26.4151,16.8523 26.7021,18.1143 27.6561,18.7163 C27.9951,18.9293 28.3721,19.0323 28.7441,19.0323 C29.4221,19.0323 30.0861,18.6943 30.4751,18.0783 C31.0771,17.1243 30.7901,15.8613 29.8361,15.2593 C29.4981,15.0463 29.1211,14.9443 28.7481,14.9443 M28.7481,15.9443 C28.9441,15.9443 29.1361,16.0003 29.3031,16.1053 C29.5391,16.2543 29.7021,16.4853 29.7641,16.7573 C29.8251,17.0293 29.7771,17.3083 29.6281,17.5453 C29.4361,17.8493 29.1051,18.0323 28.7441,18.0323 C28.5481,18.0323 28.3571,17.9753 28.1891,17.8713 C27.7031,17.5633 27.5571,16.9183 27.8641,16.4313 C28.0561,16.1273 28.3871,15.9443 28.7481,15.9443" id="Fill-66"></path>
            </g>
            <g id="white-lines" transform="translate(27.3134, 2)" stroke="#FFFFFF" stroke-linecap="round" stroke-width="2">
                <line x1="0" y1="94.7836" x2="15.9070087" y2="94.7836" id="Path-8"></line>
                <line x1="4.6866" y1="90.684313" x2="20.5936087" y2="90.684313" id="Path-8-Copy"></line>
                <line x1="9.6866" y1="86.5850261" x2="23.6866" y2="86.5850261" id="Path-8-Copy-2"></line>
                <line x1="14.6866" y1="82.4857391" x2="27.6866" y2="82.4857391" id="Path-8-Copy-3"></line>
                <line x1="18.6866" y1="78.3864522" x2="30.6866" y2="78.3864522" id="Path-8-Copy-4"></line>
                <line x1="21.6866" y1="74.2871652" x2="33.6866" y2="74.2871652" id="Path-8-Copy-5"></line>
                <line x1="24.6866" y1="69.9964348" x2="35.6401044" y2="69.9964348" id="Path-8-Copy-6"></line>
                <line x1="27.6866" y1="65.8971478" x2="37.6401044" y2="65.8971478" id="Path-8-Copy-7"></line>
                <line x1="29.6866" y1="61.7978609" x2="39.1633522" y2="61.7978609" id="Path-8-Copy-8"></line>
                <line x1="31.6866" y1="57.6985739" x2="39.6866" y2="57.6985739" id="Path-8-Copy-9"></line>
                <line x1="32.6866" y1="53.599287" x2="40.6866" y2="53.599287" id="Path-8-Copy-10"></line>
                <line x1="34.6866" y1="49.5" x2="41.6866" y2="49.5" id="Path-8-Copy-11"></line>
                <line x1="35.6866" y1="45.5921565" x2="42.6401044" y2="45.5921565" id="Path-8-Copy-12"></line>
                <line x1="36.1633522" y1="41.4928696" x2="42.6401044" y2="41.4928696" id="Path-8-Copy-13"></line>
                <line x1="36.9249761" y1="37.3935826" x2="42.6401044" y2="37.3935826" id="Path-8-Copy-14"></line>
                <line x1="37.6866" y1="33.2942957" x2="42.6866" y2="33.2942957" id="Path-8-Copy-15"></line>
                <line x1="37.6866" y1="29.1950087" x2="42.6401044" y2="29.1950087" id="Path-8-Copy-16"></line>
                <line x1="36.9249761" y1="25.0957217" x2="41.6401044" y2="25.0957217" id="Path-8-Copy-17"></line>
                <line x1="35.6866" y1="20.9964348" x2="40.6401044" y2="20.9964348" id="Path-8-Copy-18"></line>
                <line x1="34.6866" y1="16.8971478" x2="39.7825402" y2="16.8971478" id="Path-8-Copy-19"></line>
                <line x1="33.6866" y1="12.7978609" x2="38.6633522" y2="12.7978609" id="Path-8-Copy-20"></line>
                <line x1="32.6866" y1="8.69857391" x2="37.2345701" y2="8.69857391" id="Path-8-Copy-21"></line>
                <line x1="31.6866" y1="4.59928696" x2="35.6866" y2="4.59928696" id="Path-8-Copy-22"></line>
                <line x1="29.6866" y1="0.5" x2="34.4249761" y2="0.5" id="Path-8-Copy-24"></line>
            </g>
            <g id="goldots" transform="translate(-0, -0.0001)" fill="#DDB208">
                <path d="M17.5091087,96.7842 C17.5091087,95.6552 18.4241087,94.7402 19.5521087,94.7402 C20.6811087,94.7402 21.5951087,95.6552 21.5951087,96.7842 C21.5951087,97.9122 20.6811087,98.8272 19.5521087,98.8272 C18.4241087,98.8272 17.5091087,97.9122 17.5091087,96.7842" id="Fill-15"></path>
                <path d="M0.269908734,39.958 C0.269908734,38.829 1.18490873,37.914 2.31290873,37.914 C3.44190873,37.914 4.35690873,38.829 4.35690873,39.958 C4.35690873,41.086 3.44190873,42.001 2.31290873,42.001 C1.18490873,42.001 0.269908734,41.086 0.269908734,39.958" id="Fill-17"></path>
                <path d="M25.2699087,35.9629 C25.2699087,34.8339 26.1849087,33.9189 27.3129087,33.9189 C28.4419087,33.9189 29.3569087,34.8339 29.3569087,35.9629 C29.3569087,37.0909 28.4419087,38.0059 27.3129087,38.0059 C26.1849087,38.0059 25.2699087,37.0909 25.2699087,35.9629" id="Fill-19"></path>
                <path d="M17.5091087,69.0322 C17.5091087,67.9042 18.4241087,66.9892 19.5521087,66.9892 C20.6811087,66.9892 21.5951087,67.9042 21.5951087,69.0322 C21.5951087,70.1612 20.6811087,71.0762 19.5521087,71.0762 C18.4241087,71.0762 17.5091087,70.1612 17.5091087,69.0322" id="Fill-21"></path>
                <path d="M25.2699087,21.1953 C25.2699087,20.0663 26.1849087,19.1523 27.3129087,19.1523 C28.4419087,19.1523 29.3569087,20.0663 29.3569087,21.1953 C29.3569087,22.3243 28.4419087,23.2383 27.3129087,23.2383 C26.1849087,23.2383 25.2699087,22.3243 25.2699087,21.1953" id="Fill-23"></path>
                <path d="M1.13460873,51.8028 C2.14460873,51.2998 3.37160873,51.7118 3.87360873,52.7228 C4.37560873,53.7338 3.96460873,54.9598 2.95360873,55.4618 C1.94260873,55.9638 0.716608734,55.5528 0.214608734,54.5418 C-0.288391266,53.5318 0.123608734,52.3048 1.13460873,51.8028" id="Fill-25"></path>
                <path d="M18.6429087,86.3946 C19.6529087,85.8926 20.8799087,86.3046 21.3819087,87.3156 C21.8849087,88.3256 21.4729087,89.5516 20.4619087,90.0546 C19.4509087,90.5566 18.2249087,90.1446 17.7229087,89.1336 C17.2199087,88.1236 17.6319087,86.8976 18.6429087,86.3946" id="Fill-27"></path>
                <path d="M0.000408733983,71.958 C0.000408733983,70.829 0.915408734,69.914 2.04340873,69.914 C3.17240873,69.914 4.08740873,70.829 4.08740873,71.958 C4.08740873,73.086 3.17240873,74.001 2.04340873,74.001 C0.915408734,74.001 0.000408733983,73.086 0.000408733983,71.958" id="Fill-29"></path>
                <path d="M39.1561087,2.044 C39.1561087,0.916 40.0711087,0.001 41.1991087,0.001 C42.3281087,0.001 43.2431087,0.916 43.2431087,2.044 C43.2431087,3.173 42.3281087,4.088 41.1991087,4.088 C40.0711087,4.088 39.1561087,3.173 39.1561087,2.044" id="Fill-31"></path>
                <path d="M8.77770873,20.9863 C8.77770873,19.8573 9.69270873,18.9423 10.8207087,18.9423 C11.9497087,18.9423 12.8647087,19.8573 12.8647087,20.9863 C12.8647087,22.1143 11.9497087,23.0293 10.8207087,23.0293 C9.69270873,23.0293 8.77770873,22.1143 8.77770873,20.9863" id="Fill-33"></path>
                <path d="M2.04430873,44.6514 C1.83430873,44.6514 1.62130873,44.6834 1.41030873,44.7524 C0.337308734,45.1024 -0.248691266,46.2554 0.101308734,47.3284 C0.382308734,48.1904 1.18330873,48.7394 2.04330873,48.7394 C2.25330873,48.7394 2.46730873,48.7064 2.67730873,48.6374 C3.75030873,48.2884 4.33630873,47.1334 3.98630873,46.0614 C3.70530873,45.1994 2.90430873,44.6514 2.04430873,44.6514 M2.04430873,45.6514 C2.49730873,45.6514 2.89530873,45.9404 3.03630873,46.3714 C3.12230873,46.6364 3.10030873,46.9194 2.97430873,47.1684 C2.84830873,47.4164 2.63230873,47.6004 2.36730873,47.6864 C2.26130873,47.7214 2.15230873,47.7394 2.04330873,47.7394 C1.59130873,47.7394 1.19230873,47.4494 1.05230873,47.0184 C0.873308734,46.4714 1.17330873,45.8814 1.72030873,45.7034 C1.82630873,45.6694 1.93530873,45.6514 2.04430873,45.6514" id="Fill-70"></path>
                <path d="M32.7254087,26.6631 C32.3504087,26.6631 31.9724087,26.7661 31.6324087,26.9811 C30.6794087,27.5861 30.3974087,28.8491 31.0014087,29.8021 C31.3914087,30.4151 32.0534087,30.7501 32.7294087,30.7501 C33.1034087,30.7501 33.4824087,30.6471 33.8224087,30.4331 C34.7744087,29.8271 35.0574087,28.5651 34.4534087,27.6121 C34.0634087,26.9991 33.4014087,26.6631 32.7254087,26.6631 M32.7254087,27.6631 C33.0854087,27.6631 33.4154087,27.8451 33.6084087,28.1471 C33.9164087,28.6341 33.7724087,29.2791 33.2864087,29.5881 C33.1184087,29.6941 32.9264087,29.7501 32.7294087,29.7501 C32.3694087,29.7501 32.0384087,29.5691 31.8464087,29.2661 C31.5384087,28.7801 31.6824087,28.1341 32.1684087,27.8261 C32.3364087,27.7201 32.5284087,27.6631 32.7254087,27.6631" id="Fill-73"></path>
                <path d="M55.0853087,27.9893 C54.7113087,27.9893 54.3323087,28.0923 53.9923087,28.3063 C53.0403087,28.9113 52.7573087,30.1743 53.3623087,31.1273 C53.7513087,31.7403 54.4133087,32.0763 55.0893087,32.0763 C55.4633087,32.0763 55.8423087,31.9733 56.1823087,31.7583 C57.1353087,31.1533 57.4173087,29.8903 56.8133087,28.9373 C56.4233087,28.3243 55.7623087,27.9893 55.0853087,27.9893 M55.0853087,28.9893 L55.0853087,28.9893 C55.4453087,28.9893 55.7753087,29.1703 55.9683087,29.4733 C56.2763087,29.9593 56.1323087,30.6053 55.6463087,30.9133 C55.4793087,31.0193 55.2863087,31.0763 55.0893087,31.0763 C54.7293087,31.0763 54.3983087,30.8943 54.2063087,30.5913 C53.8983087,30.1053 54.0433087,29.4603 54.5283087,29.1513 C54.6963087,29.0453 54.8893087,28.9893 55.0853087,28.9893" id="Fill-75"></path>
                <path d="M19.3299087,19.1514 C19.1199087,19.1514 18.9069087,19.1834 18.6959087,19.2534 C17.6229087,19.6024 17.0369087,20.7554 17.3869087,21.8294 C17.6679087,22.6914 18.4689087,23.2394 19.3299087,23.2394 C19.5389087,23.2394 19.7529087,23.2064 19.9629087,23.1374 C21.0359087,22.7884 21.6219087,21.6344 21.2719087,20.5614 C20.9909087,19.6994 20.1909087,19.1514 19.3299087,19.1514 M19.3299087,20.1514 L19.3299087,20.1514 C19.7829087,20.1514 20.1809087,20.4404 20.3219087,20.8724 C20.4079087,21.1364 20.3859087,21.4194 20.2599087,21.6684 C20.1339087,21.9164 19.9179087,22.1004 19.6529087,22.1874 C19.5469087,22.2214 19.4379087,22.2394 19.3299087,22.2394 C18.8769087,22.2394 18.4779087,21.9494 18.3379087,21.5184 C18.2509087,21.2544 18.2729087,20.9704 18.3999087,20.7224 C18.5259087,20.4734 18.7409087,20.2904 19.0059087,20.2034 C19.1119087,20.1694 19.2209087,20.1514 19.3299087,20.1514" id="Fill-77"></path>
                <path d="M10.8216087,12.4072 C10.6116087,12.4072 10.3986087,12.4392 10.1876087,12.5092 C9.11460873,12.8582 8.52860873,14.0112 8.87860873,15.0852 C9.15960873,15.9472 9.96060873,16.4952 10.8206087,16.4952 C11.0306087,16.4952 11.2446087,16.4622 11.4546087,16.3932 C12.5276087,16.0442 13.1136087,14.8902 12.7636087,13.8172 C12.4826087,12.9552 11.6826087,12.4072 10.8216087,12.4072 M10.8216087,13.4072 C11.2746087,13.4072 11.6726087,13.6962 11.8136087,14.1282 C11.9916087,14.6752 11.6916087,15.2642 11.1446087,15.4432 C11.0386087,15.4772 10.9296087,15.4952 10.8206087,15.4952 C10.3686087,15.4952 9.96960873,15.2052 9.82960873,14.7742 C9.65060873,14.2272 9.95060873,13.6372 10.4976087,13.4592 C10.6036087,13.4252 10.7126087,13.4072 10.8216087,13.4072" id="Fill-79"></path>
                <path d="M10.8216087,37.9141 C10.6116087,37.9141 10.3986087,37.9461 10.1876087,38.0151 C9.11460873,38.3651 8.52860873,39.5181 8.87860873,40.5911 C9.15960873,41.4541 9.96060873,42.0021 10.8206087,42.0021 C11.0306087,42.0021 11.2446087,41.9691 11.4546087,41.9001 C12.5276087,41.5511 13.1136087,40.3971 12.7636087,39.3241 C12.4826087,38.4621 11.6816087,37.9141 10.8216087,37.9141 M10.8216087,38.9141 C11.2746087,38.9141 11.6726087,39.2031 11.8136087,39.6351 C11.8996087,39.8991 11.8776087,40.1821 11.7516087,40.4311 C11.6256087,40.6791 11.4096087,40.8631 11.1446087,40.9501 C11.0386087,40.9841 10.9296087,41.0021 10.8206087,41.0021 C10.3686087,41.0021 9.96960873,40.7121 9.82960873,40.2811 C9.65060873,39.7341 9.95060873,39.1441 10.4976087,38.9661 C10.6036087,38.9321 10.7126087,38.9141 10.8216087,38.9141" id="Fill-81"></path>
                <path d="M34.9056087,6.1514 C34.6956087,6.1514 34.4816087,6.1844 34.2716087,6.2534 C33.1986087,6.6024 32.6126087,7.7554 32.9626087,8.8294 C33.2436087,9.6914 34.0436087,10.2394 34.9046087,10.2394 C35.1136087,10.2394 35.3276087,10.2074 35.5386087,10.1374 C36.6116087,9.7884 37.1976087,8.6344 36.8476087,7.5614 C36.5666087,6.6994 35.7656087,6.1514 34.9056087,6.1514 M34.9056087,7.1514 C35.3576087,7.1514 35.7566087,7.4414 35.8966087,7.8724 C36.0746087,8.4194 35.7756087,9.0084 35.2286087,9.1874 C35.1226087,9.2214 35.0136087,9.2394 34.9046087,9.2394 C34.4516087,9.2394 34.0536087,8.9504 33.9126087,8.5184 C33.8266087,8.2544 33.8486087,7.9714 33.9746087,7.7224 C34.1006087,7.4744 34.3166087,7.2904 34.5816087,7.2044 C34.6876087,7.1694 34.7966087,7.1514 34.9056087,7.1514" id="Fill-83"></path>
                <path d="M2.04430873,62.9014 C1.83430873,62.9014 1.62130873,62.9334 1.41030873,63.0024 C0.337308734,63.3524 -0.248691266,64.5054 0.101308734,65.5794 C0.382308734,66.4414 1.18330873,66.9894 2.04330873,66.9894 C2.25330873,66.9894 2.46730873,66.9564 2.67730873,66.8874 C3.75030873,66.5384 4.33630873,65.3844 3.98630873,64.3114 C3.70530873,63.4494 2.90430873,62.9014 2.04430873,62.9014 M2.04430873,63.9014 C2.49730873,63.9014 2.89530873,64.1904 3.03630873,64.6224 C3.12230873,64.8864 3.10030873,65.1694 2.97430873,65.4184 C2.84830873,65.6664 2.63230873,65.8504 2.36730873,65.9364 C2.26130873,65.9714 2.15230873,65.9894 2.04330873,65.9894 C1.59130873,65.9894 1.19230873,65.6994 1.05230873,65.2684 C0.873308734,64.7214 1.17330873,64.1314 1.72030873,63.9534 C1.82630873,63.9194 1.93530873,63.9014 2.04430873,63.9014" id="Fill-85"></path>
                <path d="M7.85240873,86.1807 C7.64240873,86.1807 7.42840873,86.2137 7.21840873,86.2827 C6.14540873,86.6317 5.55940873,87.7847 5.90940873,88.8587 C6.19040873,89.7207 6.99040873,90.2687 7.85140873,90.2687 C8.06140873,90.2687 8.27440873,90.2357 8.48540873,90.1667 C9.55840873,89.8177 10.1444087,88.6637 9.79440873,87.5907 C9.51340873,86.7287 8.71240873,86.1807 7.85240873,86.1807 M7.85240873,87.1807 C8.30540873,87.1807 8.70340873,87.4697 8.84340873,87.9017 C9.02140873,88.4487 8.72240873,89.0377 8.17540873,89.2167 C8.06940873,89.2507 7.96040873,89.2687 7.85140873,89.2687 C7.39840873,89.2687 7.00040873,88.9797 6.85940873,88.5477 C6.68140873,88.0007 6.98140873,87.4107 7.52840873,87.2327 C7.63440873,87.1987 7.74340873,87.1807 7.85240873,87.1807" id="Fill-88"></path>
                <path d="M13.3905087,94.7403 C13.1805087,94.7403 12.9675087,94.7723 12.7565087,94.8413 C11.6835087,95.1913 11.0975087,96.3443 11.4475087,97.4173 C11.7285087,98.2803 12.5295087,98.8283 13.3895087,98.8283 C13.5995087,98.8283 13.8135087,98.7953 14.0235087,98.7263 C15.0965087,98.3773 15.6825087,97.2233 15.3325087,96.1503 C15.0515087,95.2883 14.2505087,94.7403 13.3905087,94.7403 M13.3905087,95.7403 C13.8435087,95.7403 14.2415087,96.0293 14.3825087,96.4613 C14.4685087,96.7253 14.4465087,97.0083 14.3205087,97.2573 C14.1945087,97.5053 13.9785087,97.6893 13.7135087,97.7763 C13.6075087,97.8103 13.4985087,97.8283 13.3895087,97.8283 C12.9375087,97.8283 12.5385087,97.5383 12.3985087,97.1073 C12.2205087,96.5603 12.5195087,95.9703 13.0665087,95.7923 C13.1725087,95.7583 13.2815087,95.7403 13.3905087,95.7403" id="Fill-90"></path>
                <path d="M11.3465087,51.5888986 C11.1365087,51.5888986 10.9235087,51.6209 10.7125087,51.6899 C9.63950873,52.0389 9.05350873,53.1929 9.40350873,54.2659 C9.68450873,55.1279 10.4855087,55.6759 11.3465087,55.6759 C11.5555087,55.6759 11.7695087,55.6439 11.9795087,55.5749 C13.0525087,55.2259 13.6385087,54.0709 13.2885087,52.9989 C13.0075087,52.1359 12.2075087,51.5879 11.3465087,51.5888986 M11.3465087,52.5889 L11.3465087,52.5889 C11.7995087,52.5889 12.1975087,52.8779 12.3385087,53.3089 C12.4245087,53.5729 12.4025087,53.8569 12.2765087,54.1049 C12.1505087,54.3539 11.9345087,54.5379 11.6695087,54.6239 C11.5635087,54.6589 11.4545087,54.6759 11.3465087,54.6759 C10.8935087,54.6759 10.4945087,54.3869 10.3545087,53.9559 C10.2675087,53.6909 10.2895087,53.4079 10.4155087,53.1589 C10.5425087,52.9109 10.7575087,52.7269 11.0225087,52.6409 C11.1285087,52.6059 11.2375087,52.5889 11.3465087,52.5889" id="Fill-93"></path>
                <path d="M34.9051087,-1.27897692e-13 C34.6951087,-1.27897692e-13 34.4821087,0.032 34.2711087,0.102 C33.1981087,0.451 32.6121087,1.604 32.9621087,2.678 C33.2431087,3.54 34.0441087,4.088 34.9051087,4.088 C35.1141087,4.088 35.3281087,4.056 35.5381087,3.986 C36.6111087,3.637 37.1971087,2.483 36.8471087,1.41 C36.5661087,0.548 35.7661087,-1.27897692e-13 34.9051087,-1.27897692e-13 M34.9051087,1 C35.3581087,1 35.7561087,1.29 35.8971087,1.721 C35.9831087,1.985 35.9611087,2.269 35.8351087,2.517 C35.7091087,2.765 35.4931087,2.949 35.2281087,3.036 C35.1221087,3.07 35.0131087,3.088 34.9051087,3.088 C34.4521087,3.088 34.0531087,2.799 33.9131087,2.367 C33.7351087,1.82 34.0341087,1.23 34.5811087,1.052 C34.6871087,1.018 34.7961087,1 34.9051087,1" id="Fill-95"></path>
                <path d="M47.3690087,4.9883 C47.1590087,4.9883 46.9460087,5.0213 46.7350087,5.0903 C45.6620087,5.4393 45.0760087,6.5923 45.4260087,7.6663 C45.7070087,8.5283 46.5080087,9.0763 47.3690087,9.0763 C47.5780087,9.0763 47.7920087,9.0443 48.0020087,8.9753 C49.0750087,8.6253 49.6610087,7.4713 49.3110087,6.3993 C49.0300087,5.5363 48.2300087,4.9883 47.3690087,4.9883 M47.3690087,5.9883 C47.8220087,5.9883 48.2200087,6.2783 48.3610087,6.7093 C48.4470087,6.9733 48.4250087,7.2573 48.2990087,7.5053 C48.1730087,7.7543 47.9570087,7.9383 47.6920087,8.0243 C47.5870087,8.0583 47.4770087,8.0763 47.3690087,8.0763 C46.9160087,8.0763 46.5170087,7.7873 46.3770087,7.3563 C46.1990087,6.8083 46.4980087,6.2183 47.0450087,6.0403 C47.1510087,6.0063 47.2600087,5.9883 47.3690087,5.9883" id="Fill-100"></path>
                <path d="M53.1073087,0.3369 C52.8973087,0.3369 52.6843087,0.3699 52.4733087,0.4389 C51.4003087,0.7879 50.8143087,1.9419 51.1643087,3.0149 C51.4453087,3.8769 52.2463087,4.4249 53.1063087,4.4249 C53.3163087,4.4249 53.5303087,4.3929 53.7403087,4.3239 C54.8133087,3.9739 55.3993087,2.8199 55.0493087,1.7479 C54.7683087,0.8859 53.9673087,0.3369 53.1073087,0.3369 M53.1073087,1.3369 C53.5603087,1.3369 53.9583087,1.6269 54.0993087,2.0579 C54.1853087,2.3229 54.1633087,2.6059 54.0373087,2.8549 C53.9103087,3.1029 53.6953087,3.2869 53.4303087,3.3729 C53.3243087,3.4069 53.2153087,3.4249 53.1063087,3.4249 C52.6533087,3.4249 52.2553087,3.1359 52.1143087,2.7049 C52.0283087,2.4399 52.0503087,2.1569 52.1763087,1.9079 C52.3033087,1.6599 52.5183087,1.4759 52.7833087,1.3899 C52.8893087,1.3549 52.9983087,1.3369 53.1073087,1.3369" id="Fill-102"></path>
                <path d="M33.2347087,74.544 C32.1067087,74.544 31.1917087,73.63 31.1917087,72.501 C31.1917087,71.372 32.1067087,70.458 33.2347087,70.458 C34.3627087,70.458 35.2777087,71.372 35.2777087,72.501 C35.2777087,73.63 34.3627087,74.544 33.2347087,74.544" id="Fill-124"></path>
                <path d="M47.0326087,46.6953 C46.8226087,46.6953 46.6086087,46.7273 46.3986087,46.7963 C45.3256087,47.1453 44.7396087,48.2993 45.0896087,49.3723 C45.3706087,50.2353 46.1716087,50.7823 47.0316087,50.7823 C47.2416087,50.7823 47.4546087,50.7503 47.6656087,50.6813 C48.7386087,50.3323 49.3246087,49.1783 48.9746087,48.1053 C48.6936087,47.2433 47.8926087,46.6953 47.0326087,46.6953 M47.0326087,47.6953 C47.4846087,47.6953 47.8836087,47.9843 48.0236087,48.4153 C48.1106087,48.6803 48.0886087,48.9633 47.9626087,49.2123 C47.8356087,49.4603 47.6206087,49.6443 47.3556087,49.7303 C47.2496087,49.7653 47.1406087,49.7823 47.0316087,49.7823 C46.5786087,49.7823 46.1806087,49.4933 46.0396087,49.0623 C45.9536087,48.7983 45.9756087,48.5143 46.1016087,48.2663 C46.2286087,48.0173 46.4436087,47.8333 46.7086087,47.7473 C46.8146087,47.7123 46.9236087,47.6953 47.0326087,47.6953" id="Fill-126"></path>
                <path d="M41.1771087,59.4531 C40.9671087,59.4531 40.7531087,59.4851 40.5431087,59.5551 C39.4701087,59.9041 38.8841087,61.0571 39.2341087,62.1311 C39.5151087,62.9931 40.3161087,63.5411 41.1761087,63.5411 C41.3861087,63.5411 41.6001087,63.5091 41.8101087,63.4391 C42.8831087,63.0901 43.4691087,61.9361 43.1191087,60.8631 C42.8381087,60.0011 42.0371087,59.4531 41.1771087,59.4531 M41.1771087,60.4531 C41.6301087,60.4531 42.0281087,60.7431 42.1691087,61.1741 C42.2551087,61.4381 42.2331087,61.7221 42.1071087,61.9701 C41.9801087,62.2181 41.7651087,62.4021 41.5001087,62.4891 C41.3941087,62.5231 41.2851087,62.5411 41.1761087,62.5411 C40.7231087,62.5411 40.3251087,62.2511 40.1841087,61.8201 C40.0981087,61.5561 40.1201087,61.2721 40.2461087,61.0241 C40.3731087,60.7761 40.5881087,60.5921 40.8531087,60.5051 C40.9591087,60.4711 41.0681087,60.4531 41.1771087,60.4531" id="Fill-128"></path>
            </g>
        </g>
    </g>
</svg>